<svg width="88" height="52" viewBox="0 0 88 52" fill="none" xmlns="http://www.w3.org/2000/svg">
<g clip-path="url(#clip0)">
<g opacity="0.1">
<path opacity="0.1" d="M64.7003 50.347C65.6396 50.347 66.401 49.3504 66.401 48.1212C66.401 46.8919 65.6396 45.8954 64.7003 45.8954C63.761 45.8954 62.9995 46.8919 62.9995 48.1212C62.9995 49.3504 63.761 50.347 64.7003 50.347Z" fill="#3F3D56"/>
<path opacity="0.1" d="M66.046 38.5991C66.2843 38.1856 66.4079 37.716 66.404 37.2387C66.404 36.0069 65.6426 35.0129 64.7033 35.0129C63.764 35.0129 63.0033 36.0092 63.0033 37.2387C62.9985 37.7157 63.121 38.1853 63.3582 38.5991C63.1255 39.0147 63.0033 39.4829 63.0033 39.9592C63.0033 40.4354 63.1255 40.9037 63.3582 41.3192C63.1255 41.7349 63.0033 42.2033 63.0033 42.6796C63.0033 43.156 63.1255 43.6244 63.3582 44.04C63.121 44.4539 62.9985 44.9235 63.0033 45.4005C63.0033 46.6323 63.7647 47.6262 64.7033 47.6262C65.6418 47.6262 66.404 46.63 66.404 45.4005C66.4088 44.9235 66.2863 44.4539 66.0491 44.04C66.2818 43.6244 66.404 43.156 66.404 42.6796C66.404 42.2033 66.2818 41.7349 66.0491 41.3192C66.2818 40.9037 66.404 40.4354 66.404 39.9592C66.404 39.4829 66.2818 39.0147 66.0491 38.5991H66.046Z" fill="#3F3D56"/>
<path opacity="0.1" d="M64.7003 36.7446C65.6396 36.7446 66.401 35.748 66.401 34.5188C66.401 33.2895 65.6396 32.293 64.7003 32.293C63.761 32.293 62.9995 33.2895 62.9995 34.5188C62.9995 35.748 63.761 36.7446 64.7003 36.7446Z" fill="#3F3D56"/>
<path opacity="0.1" d="M64.7003 34.0235C65.6396 34.0235 66.401 33.027 66.401 31.7977C66.401 30.5684 65.6396 29.5719 64.7003 29.5719C63.761 29.5719 62.9995 30.5684 62.9995 31.7977C62.9995 33.027 63.761 34.0235 64.7003 34.0235Z" fill="#3F3D56"/>
<path opacity="0.1" d="M71.0658 13.18C71.2979 12.8841 71.5094 12.5726 71.6987 12.2477L67.2332 11.5139L72.0659 11.5501C72.5291 10.5415 72.7816 9.44893 72.8081 8.33933C72.8346 7.22973 72.6344 6.1264 72.2199 5.09679L65.7358 8.45819L71.7164 4.06512C71.1559 3.09789 70.4024 2.25637 69.5026 1.59294C68.6029 0.929518 67.5762 0.458393 66.4865 0.208892C65.3968 -0.0406094 64.2675 -0.0631455 63.1687 0.142687C62.0699 0.348519 61.0253 0.778313 60.0998 1.40532C59.1743 2.03232 58.3878 2.84311 57.7892 3.78722C57.1906 4.73132 56.7927 5.78854 56.6203 6.89306C56.448 7.99757 56.5048 9.12574 56.7873 10.2073C57.0698 11.289 57.5719 12.3008 58.2623 13.18C57.9004 13.6403 57.5891 14.1382 57.3338 14.6651L63.1335 17.6786L56.9496 15.5998C56.5145 16.8829 56.4063 18.2543 56.6348 19.5898C56.8634 20.9253 57.4214 22.1826 58.2585 23.248C57.3135 24.4494 56.7256 25.8925 56.5621 27.4122C56.3986 28.9319 56.6661 30.467 57.3339 31.8419C58.0017 33.2168 59.0429 34.3761 60.3385 35.1871C61.634 35.9982 63.1317 36.4283 64.6602 36.4283C66.1887 36.4283 67.6864 35.9982 68.982 35.1871C70.2775 34.3761 71.3188 33.2168 71.9866 31.8419C72.6544 30.467 72.9218 28.9319 72.7583 27.4122C72.5948 25.8925 72.0069 24.4494 71.062 23.248C72.1912 21.8124 72.8051 20.039 72.8051 18.2125C72.8051 16.386 72.1912 14.6125 71.062 13.1769L71.0658 13.18Z" fill="#6C63FF"/>
<path opacity="0.1" d="M56.5193 18.216C56.5165 20.0428 57.1307 21.817 58.2624 23.2511C57.3174 24.4525 56.7295 25.8956 56.566 27.4153C56.4025 28.9351 56.67 30.4701 57.3378 31.845C58.0056 33.2199 59.0468 34.3792 60.3424 35.1902C61.6379 36.0013 63.1356 36.4314 64.6641 36.4314C66.1926 36.4314 67.6902 36.0013 68.9858 35.1902C70.2814 34.3792 71.3226 33.2199 71.9904 31.845C72.6582 30.4701 72.9256 28.9351 72.7621 27.4153C72.5986 25.8956 72.0108 24.4525 71.0658 23.2511C72.1575 21.8653 56.5193 17.3013 56.5193 18.216Z" fill="black"/>
</g>
<g opacity="0.1">
<path opacity="0.1" d="M17.0001 47.9664C17.5715 47.9664 18.0348 47.3597 18.0348 46.6114C18.0348 45.863 17.5715 45.2563 17.0001 45.2563C16.4286 45.2563 15.9653 45.863 15.9653 46.6114C15.9653 47.3597 16.4286 47.9664 17.0001 47.9664Z" fill="#3F3D56"/>
<path opacity="0.1" d="M17.8233 40.8148C17.9677 40.5628 18.0424 40.2768 18.0396 39.9864C18.0396 39.238 17.5777 38.6313 17.0041 38.6313C16.4305 38.6313 15.9693 39.238 15.9693 39.9864C15.9663 40.2768 16.0407 40.5627 16.1849 40.8148C16.0436 41.0679 15.9694 41.3529 15.9694 41.6428C15.9694 41.9327 16.0436 42.2178 16.1849 42.4708C16.0436 42.7239 15.9694 43.009 15.9694 43.2989C15.9694 43.5888 16.0436 43.8738 16.1849 44.1269C16.0406 44.3787 15.9662 44.6644 15.9693 44.9545C15.9693 45.7037 16.4313 46.3103 17.0041 46.3103C17.5769 46.3103 18.0396 45.7037 18.0396 44.9545C18.0425 44.6643 17.9678 44.3786 17.8233 44.1269C17.965 43.8739 18.0395 43.5888 18.0395 43.2989C18.0395 43.0089 17.965 42.7238 17.8233 42.4708C17.965 42.2179 18.0395 41.9328 18.0395 41.6428C18.0395 41.3529 17.965 41.0677 17.8233 40.8148V40.8148Z" fill="#3F3D56"/>
<path opacity="0.1" d="M17.0001 39.6854C17.5715 39.6854 18.0348 39.0787 18.0348 38.3304C18.0348 37.582 17.5715 36.9753 17.0001 36.9753C16.4286 36.9753 15.9653 37.582 15.9653 38.3304C15.9653 39.0787 16.4286 39.6854 17.0001 39.6854Z" fill="#3F3D56"/>
<path opacity="0.1" d="M17.0001 38.0294C17.5715 38.0294 18.0348 37.4227 18.0348 36.6744C18.0348 35.926 17.5715 35.3193 17.0001 35.3193C16.4286 35.3193 15.9653 35.926 15.9653 36.6744C15.9653 37.4227 16.4286 38.0294 17.0001 38.0294Z" fill="#3F3D56"/>
<path opacity="0.1" d="M13.1268 25.3398C12.9854 25.1598 12.8568 24.9702 12.7418 24.7723L15.4619 24.3258L12.5201 24.3481C12.2384 23.7344 12.0848 23.0697 12.0685 22.3946C12.0522 21.7195 12.1737 21.0482 12.4254 20.4216L16.3696 22.4703L12.7303 19.7911C13.0716 19.2026 13.5304 18.6907 14.0781 18.2872C14.6257 17.8837 15.2506 17.5972 15.9137 17.4456C16.5769 17.2939 17.2641 17.2804 17.9327 17.4057C18.6014 17.5311 19.237 17.7927 19.8002 18.1742C20.3634 18.5558 20.842 19.0492 21.2063 19.6237C21.5706 20.1982 21.8128 20.8415 21.9178 21.5136C22.0228 22.1857 21.9884 22.8722 21.8167 23.5305C21.645 24.1887 21.3397 24.8046 20.9197 25.3398C21.14 25.6196 21.3295 25.9224 21.4848 26.2429L17.9541 28.0783L21.7189 26.8149C21.9833 27.5963 22.0487 28.4313 21.9092 29.2443C21.7696 30.0573 21.4296 30.8228 20.9197 31.4713C21.4949 32.2026 21.8527 33.0811 21.9522 34.0062C22.0517 34.9313 21.8889 35.8658 21.4824 36.7027C21.0758 37.5397 20.442 38.2454 19.6533 38.7391C18.8646 39.2328 17.9529 39.4946 17.0225 39.4946C16.092 39.4946 15.1803 39.2328 14.3917 38.7391C13.603 38.2454 12.9691 37.5397 12.5626 36.7027C12.1561 35.8658 11.9932 34.9313 12.0927 34.0062C12.1922 33.0811 12.55 32.2026 13.1252 31.4713C12.4379 30.5972 12.0642 29.5175 12.0642 28.4055C12.0642 27.2936 12.4379 26.2138 13.1252 25.3398H13.1268Z" fill="#6C63FF"/>
<path opacity="0.1" d="M21.9806 28.4055C21.9822 29.5178 21.6084 30.598 20.9196 31.4713C21.4948 32.2026 21.8527 33.0811 21.9521 34.0062C22.0516 34.9314 21.8888 35.8658 21.4823 36.7028C21.0757 37.5397 20.4419 38.2454 19.6532 38.7391C18.8645 39.2328 17.9529 39.4946 17.0224 39.4946C16.0919 39.4946 15.1803 39.2328 14.3916 38.7391C13.6029 38.2454 12.9691 37.5397 12.5625 36.7028C12.156 35.8658 11.9931 34.9314 12.0926 34.0062C12.1921 33.0811 12.5499 32.2026 13.1251 31.4713C12.4607 30.6313 21.9806 27.8489 21.9806 28.4055Z" fill="black"/>
</g>
<g opacity="0.1">
<path opacity="0.1" d="M40.3282 49.146C41.0931 49.146 41.7132 48.3343 41.7132 47.3329C41.7132 46.3315 41.0931 45.5198 40.3282 45.5198C39.5632 45.5198 38.9431 46.3315 38.9431 47.3329C38.9431 48.3343 39.5632 49.146 40.3282 49.146Z" fill="#3F3D56"/>
<path opacity="0.1" d="M41.4245 39.5755C41.6175 39.2381 41.7171 38.8555 41.7132 38.4668C41.7132 37.4659 41.0972 36.6537 40.3273 36.6537C39.5574 36.6537 38.9415 37.4659 38.9415 38.4668C38.9375 38.8556 39.0374 39.2383 39.231 39.5755C39.0412 39.914 38.9416 40.2956 38.9416 40.6838C38.9416 41.0719 39.0412 41.4535 39.231 41.792C39.0412 42.1304 38.9416 42.5119 38.9416 42.8999C38.9416 43.2879 39.0412 43.6694 39.231 44.0078C39.0374 44.3449 38.9375 44.7277 38.9415 45.1165C38.9415 46.1173 39.5621 46.9296 40.3273 46.9296C41.0926 46.9296 41.7132 46.1173 41.7132 45.1165C41.7171 44.7278 41.6175 44.3451 41.4245 44.0078C41.6138 43.6693 41.7132 43.2878 41.7132 42.8999C41.7132 42.512 41.6138 42.1306 41.4245 41.792C41.6138 41.4533 41.7132 41.0718 41.7132 40.6838C41.7132 40.2957 41.6138 39.9142 41.4245 39.5755V39.5755Z" fill="#3F3D56"/>
<path opacity="0.1" d="M40.3282 38.0642C41.0931 38.0642 41.7132 37.2524 41.7132 36.251C41.7132 35.2496 41.0931 34.4379 40.3282 34.4379C39.5632 34.4379 38.9431 35.2496 38.9431 36.251C38.9431 37.2524 39.5632 38.0642 40.3282 38.0642Z" fill="#3F3D56"/>
<path opacity="0.1" d="M40.3282 35.8474C41.0931 35.8474 41.7132 35.0357 41.7132 34.0343C41.7132 33.033 41.0931 32.2212 40.3282 32.2212C39.5632 32.2212 38.9431 33.033 38.9431 34.0343C38.9431 35.0357 39.5632 35.8474 40.3282 35.8474Z" fill="#3F3D56"/>
<path opacity="0.1" d="M35.1459 18.8673C34.9566 18.6265 34.7843 18.3728 34.6301 18.1081L38.2695 17.5107L34.3337 17.5399C33.956 16.7183 33.75 15.8282 33.7282 14.9242C33.7063 14.0202 33.8691 13.1212 34.2066 12.2823L39.4882 15.0216L34.617 11.4415C35.0721 10.6507 35.6854 9.96214 36.4186 9.41899C37.1519 8.87585 37.9892 8.48976 38.8784 8.28485C39.7675 8.07993 40.6894 8.0606 41.5864 8.22806C42.4834 8.39552 43.3362 8.74616 44.0915 9.25809C44.8468 9.77001 45.4885 10.4322 45.9763 11.2033C46.4642 11.9744 46.7878 12.8379 46.9269 13.7397C47.0659 14.6415 47.0176 15.5623 46.7847 16.4445C46.5519 17.3268 46.1396 18.1515 45.5736 18.8673C45.8683 19.2424 46.1218 19.6482 46.3296 20.0775L41.6055 22.532L46.643 20.8382C46.9968 21.8838 47.0844 23.0012 46.8976 24.0891C46.7109 25.1771 46.2558 26.2013 45.5736 27.069C46.3433 28.0478 46.8221 29.2233 46.9552 30.4613C47.0884 31.6993 46.8705 32.9498 46.3264 34.0698C45.7824 35.1898 44.9342 36.1341 43.8788 36.7948C42.8234 37.4554 41.6033 37.8058 40.3582 37.8058C39.1131 37.8058 37.8931 37.4554 36.8376 36.7948C35.7822 36.1341 34.934 35.1898 34.39 34.0698C33.846 32.9498 33.6281 31.6993 33.7612 30.4613C33.8943 29.2233 34.3731 28.0478 35.1429 27.069C34.2232 25.8994 33.7232 24.4546 33.7232 22.9666C33.7232 21.4787 34.2232 20.0339 35.1429 18.8642L35.1459 18.8673Z" fill="#6C63FF"/>
<path opacity="0.1" d="M46.9932 22.9701C46.9955 24.4583 46.4953 25.9037 45.5735 27.0721C46.3433 28.0508 46.8221 29.2264 46.9552 30.4644C47.0883 31.7024 46.8704 32.9529 46.3264 34.0729C45.7824 35.1929 44.9342 36.1372 43.8788 36.7978C42.8233 37.4585 41.6033 37.8089 40.3582 37.8089C39.1131 37.8089 37.893 37.4585 36.8376 36.7978C35.7822 36.1372 34.934 35.1929 34.39 34.0729C33.846 32.9529 33.6281 31.7024 33.7612 30.4644C33.8943 29.2264 34.3731 28.0508 35.1429 27.0721C34.2536 25.9435 46.9932 22.2248 46.9932 22.9701Z" fill="black"/>
</g>
<path d="M88.0001 48.9828C88.0001 49.5118 84.1336 49.9953 77.7411 50.3687C76.5785 50.4356 75.3328 50.4995 74.0117 50.5596C72.8702 50.6109 71.6737 50.6594 70.4224 50.7051C69.2101 50.7482 67.9513 50.7882 66.646 50.8252C62.524 50.943 57.9669 51.0277 53.1257 51.07C51.9509 51.0808 50.7603 51.089 49.5542 51.0947C48.2977 51.1003 47.0268 51.1029 45.7416 51.1024C22.4027 51.1024 3.48389 50.1546 3.48389 48.9851C3.48389 47.8157 22.4027 46.8679 45.7416 46.8679C55.7896 46.8679 65.0169 47.0442 72.2694 47.3368L73.0624 47.3691H73.067C82.2027 47.7564 88.0001 48.3392 88.0001 48.9828Z" fill="#3F3D56"/>
<path opacity="0.15" d="M88.0001 48.9828C88.0001 49.5118 84.1336 49.9953 77.7411 50.3687C76.5785 50.4356 75.3328 50.4995 74.0117 50.5596C72.8702 50.6109 71.6737 50.6594 70.4224 50.7051C69.2101 50.7482 67.9513 50.7882 66.646 50.8252C62.524 50.943 57.9669 51.0277 53.1257 51.07C51.9509 51.0808 50.7603 51.089 49.5542 51.0947C48.2977 51.1003 47.0268 51.1029 45.7416 51.1024C22.4027 51.1024 3.48389 50.1546 3.48389 48.9851C3.48389 47.8157 22.4027 46.8679 45.7416 46.8679C55.7896 46.8679 65.0169 47.0442 72.2694 47.3368L73.0624 47.3691H73.067C82.2027 47.7564 88.0001 48.3392 88.0001 48.9828Z" fill="black"/>
<path d="M84.5162 48.6101C84.5162 49.0521 80.6497 49.457 74.2572 49.765C73.0954 49.8212 71.849 49.8743 70.5286 49.9244C69.3865 49.9675 68.1901 50.008 66.9393 50.046C65.7269 50.0819 64.4681 50.1155 63.1629 50.1469C59.0401 50.2454 54.483 50.3162 49.6419 50.3516C48.468 50.3604 47.2775 50.367 46.0703 50.3717C44.8138 50.3763 43.5432 50.3786 42.2585 50.3786C18.9196 50.3786 0 49.5864 0 48.6078C0 47.6293 18.9196 46.837 42.2585 46.837C52.3057 46.837 61.533 46.9841 68.7855 47.2289L69.5785 47.2559H69.5839C78.7227 47.5846 84.5162 48.0689 84.5162 48.6101Z" fill="#3F3D56"/>
<path d="M10.9142 32.5247L9.85327 29.2765L35.2601 28.9985L36.301 32.2144L10.9142 32.5247Z" fill="#3F3D56"/>
<path opacity="0.15" d="M10.9142 32.5247L9.85327 29.2765L35.2601 28.9985L36.301 32.2144L10.9142 32.5247Z" fill="black"/>
<path d="M9.22035 32.5247L8.15942 29.2765L33.5662 28.9985L34.6072 32.2144L9.22035 32.5247Z" fill="#3F3D56"/>
<path d="M52.5931 27.5333C49.9662 27.5333 47.8959 26.4906 46.3823 24.4052C44.8686 22.3198 44.1118 19.7935 44.1118 16.8263C44.1118 13.839 44.8437 11.3179 46.3076 9.26272C47.7714 7.20759 49.8363 6.18106 52.5022 6.18311C55.3293 6.18311 57.4594 7.26585 58.8924 9.43133C60.3255 11.5968 61.0423 14.1031 61.0428 16.9502C61.0428 19.7768 60.3011 22.2477 58.8178 24.3628C57.3344 26.478 55.2595 27.5349 52.5931 27.5333ZM52.6701 25.1874C54.3983 25.1874 55.6899 24.4342 56.545 22.9277C57.4001 21.4213 57.8277 19.5222 57.8277 17.2305C57.8277 14.6795 57.3901 12.5908 56.515 10.9642C55.6399 9.33766 54.2977 8.52413 52.4884 8.52362C49.0495 8.52362 47.33 11.2552 47.33 16.7185C47.33 22.3649 49.1095 25.1879 52.6685 25.1874H52.6701ZM53.5354 47.6524H49.736L74.6101 6.60117H78.3379L53.5354 47.6524ZM75.5409 48.0736C72.8744 48.0736 70.7957 47.0214 69.3046 44.917C67.8136 42.8126 67.065 40.286 67.0588 37.3373C67.0588 34.3701 67.7856 31.8589 69.2392 29.8038C70.6928 27.7486 72.7628 26.7221 75.4493 26.7241C78.2563 26.7241 80.3715 27.8069 81.7948 29.9724C83.2181 32.1378 83.93 34.6439 83.9305 37.4905C83.9305 40.2986 83.1937 42.7648 81.7201 44.8892C80.2465 47.0137 78.1863 48.0751 75.5393 48.0736H75.5409ZM75.5855 45.6676C77.3055 45.6676 78.5902 44.9272 79.4397 43.4465C80.2891 41.9657 80.7139 40.0743 80.7139 37.7723C80.7139 35.3086 80.284 33.2424 79.4243 31.5738C78.5645 29.9051 77.2252 29.0695 75.4061 29.067C71.9472 29.067 70.2178 31.7986 70.2178 37.2618C70.2167 42.8662 72.0055 45.6681 75.584 45.6676H75.5855Z" fill="#3F3D56"/>
<path d="M52.5931 27.5333C49.9662 27.5333 47.8959 26.4906 46.3823 24.4052C44.8686 22.3198 44.1118 19.7935 44.1118 16.8263C44.1118 13.839 44.8437 11.3179 46.3076 9.26272C47.7714 7.20759 49.8363 6.18106 52.5022 6.18311C55.3293 6.18311 57.4594 7.26585 58.8924 9.43133C60.3255 11.5968 61.0423 14.1031 61.0428 16.9502C61.0428 19.7768 60.3011 22.2477 58.8178 24.3628C57.3344 26.478 55.2595 27.5349 52.5931 27.5333ZM52.6701 25.1874C54.3983 25.1874 55.6899 24.4342 56.545 22.9277C57.4001 21.4213 57.8277 19.5222 57.8277 17.2305C57.8277 14.6795 57.3901 12.5908 56.515 10.9642C55.6399 9.33766 54.2977 8.52413 52.4884 8.52362C49.0495 8.52362 47.33 11.2552 47.33 16.7185C47.33 22.3649 49.1095 25.1879 52.6685 25.1874H52.6701ZM53.5354 47.6524H49.736L74.6101 6.60117H78.3379L53.5354 47.6524ZM75.5409 48.0736C72.8744 48.0736 70.7957 47.0214 69.3046 44.917C67.8136 42.8126 67.065 40.286 67.0588 37.3373C67.0588 34.3701 67.7856 31.8589 69.2392 29.8038C70.6928 27.7486 72.7628 26.7221 75.4493 26.7241C78.2563 26.7241 80.3715 27.8069 81.7948 29.9724C83.2181 32.1378 83.93 34.6439 83.9305 37.4905C83.9305 40.2986 83.1937 42.7648 81.7201 44.8892C80.2465 47.0137 78.1863 48.0751 75.5393 48.0736H75.5409ZM75.5855 45.6676C77.3055 45.6676 78.5902 44.9272 79.4397 43.4465C80.2891 41.9657 80.7139 40.0743 80.7139 37.7723C80.7139 35.3086 80.284 33.2424 79.4243 31.5738C78.5645 29.9051 77.2252 29.0695 75.4061 29.067C71.9472 29.067 70.2178 31.7986 70.2178 37.2618C70.2167 42.8662 72.0055 45.6681 75.584 45.6676H75.5855Z" fill="#3F3D56"/>
<path opacity="0.15" d="M52.5931 27.5333C49.9662 27.5333 47.8959 26.4906 46.3823 24.4052C44.8686 22.3198 44.1118 19.7935 44.1118 16.8263C44.1118 13.839 44.8437 11.3179 46.3076 9.26272C47.7714 7.20759 49.8363 6.18106 52.5022 6.18311C55.3293 6.18311 57.4594 7.26585 58.8924 9.43133C60.3255 11.5968 61.0423 14.1031 61.0428 16.9502C61.0428 19.7768 60.3011 22.2477 58.8178 24.3628C57.3344 26.478 55.2595 27.5349 52.5931 27.5333ZM52.6701 25.1874C54.3983 25.1874 55.6899 24.4342 56.545 22.9277C57.4001 21.4213 57.8277 19.5222 57.8277 17.2305C57.8277 14.6795 57.3901 12.5908 56.515 10.9642C55.6399 9.33766 54.2977 8.52413 52.4884 8.52362C49.0495 8.52362 47.33 11.2552 47.33 16.7185C47.33 22.3649 49.1095 25.1879 52.6685 25.1874H52.6701ZM53.5354 47.6524H49.736L74.6101 6.60117H78.3379L53.5354 47.6524ZM75.5409 48.0736C72.8744 48.0736 70.7957 47.0214 69.3046 44.917C67.8136 42.8126 67.065 40.286 67.0588 37.3373C67.0588 34.3701 67.7856 31.8589 69.2392 29.8038C70.6928 27.7486 72.7628 26.7221 75.4493 26.7241C78.2563 26.7241 80.3715 27.8069 81.7948 29.9724C83.2181 32.1378 83.93 34.6439 83.9305 37.4905C83.9305 40.2986 83.1937 42.7648 81.7201 44.8892C80.2465 47.0137 78.1863 48.0751 75.5393 48.0736H75.5409ZM75.5855 45.6676C77.3055 45.6676 78.5902 44.9272 79.4397 43.4465C80.2891 41.9657 80.7139 40.0743 80.7139 37.7723C80.7139 35.3086 80.284 33.2424 79.4243 31.5738C78.5645 29.9051 77.2252 29.0695 75.4061 29.067C71.9472 29.067 70.2178 31.7986 70.2178 37.2618C70.2167 42.8662 72.0055 45.6681 75.584 45.6676H75.5855Z" fill="black"/>
<path d="M50.2064 27.5333C47.5795 27.5333 45.5092 26.4906 43.9955 24.4052C42.4819 22.3198 41.7251 19.7935 41.7251 16.8263C41.7251 13.839 42.457 11.3179 43.9209 9.26272C45.3847 7.20759 47.4496 6.18106 50.1155 6.18311C52.9426 6.18311 55.0727 7.26585 56.5057 9.43133C57.9388 11.5968 58.6556 14.1031 58.6561 16.9502C58.6561 19.7768 57.9144 22.2477 56.4311 24.3628C54.9477 26.478 52.8728 27.5349 50.2064 27.5333ZM50.2834 25.1874C52.0115 25.1874 53.3032 24.4342 54.1583 22.9277C55.0134 21.4213 55.441 19.5222 55.441 17.2305C55.441 14.6795 55.0034 12.5908 54.1283 10.9642C53.2531 9.33766 51.9109 8.52413 50.1017 8.52362C46.6628 8.52362 44.9433 11.2552 44.9433 16.7185C44.9433 22.3649 46.7228 25.1879 50.2818 25.1874H50.2834ZM51.1487 47.6524H47.3493L72.2233 6.60117H75.9512L51.1487 47.6524ZM73.1542 48.0736C70.4877 48.0736 68.409 47.0214 66.9179 44.917C65.4269 42.8126 64.6783 40.286 64.6721 37.3373C64.6721 34.3701 65.3989 31.8589 66.8525 29.8038C68.3061 27.7486 70.3761 26.7221 73.0625 26.7241C75.8696 26.7241 77.9848 27.8069 79.4081 29.9724C80.8314 32.1378 81.5433 34.6439 81.5438 37.4905C81.5438 40.2986 80.807 42.7648 79.3334 44.8892C77.8598 47.0137 75.7996 48.0751 73.1526 48.0736H73.1542ZM73.1988 45.6676C74.9188 45.6676 76.2035 44.9272 77.053 43.4465C77.9024 41.9657 78.3271 40.0743 78.3271 37.7723C78.3271 35.3086 77.8973 33.2424 77.0376 31.5738C76.1778 29.9051 74.8379 29.0695 73.0179 29.067C69.559 29.067 67.8295 31.7986 67.8295 37.2618C67.8295 42.8662 69.6188 45.6681 73.1973 45.6676H73.1988Z" fill="#3F3D56"/>
<path d="M58.5181 48.6824C58.8353 48.0942 58.4749 47.3736 58.0607 46.8485C57.6465 46.3234 57.1415 45.7783 57.1523 45.1093C57.1677 44.1492 58.187 43.5818 59 43.0721C59.6047 42.6944 60.1624 42.2462 60.6614 41.7371C60.8704 41.541 61.0432 41.3095 61.1719 41.0534C61.3405 40.6777 61.3351 40.2504 61.3259 39.8393C61.2904 38.4678 61.2227 37.0984 61.1226 35.7311" stroke="#3F3D56" stroke-width="4" stroke-miterlimit="10"/>
<path d="M62.6718 35.6558C62.6603 35.405 62.5857 35.1611 62.4551 34.9466C62.3244 34.7321 62.1419 34.554 61.9243 34.4286L61.5886 35.0923L61.5986 34.2885C61.4385 34.2417 61.2717 34.2217 61.1051 34.2292C60.8091 34.2431 60.5239 34.3444 60.2855 34.5204C60.0471 34.6964 59.8662 34.9391 59.7657 35.2178C59.6653 35.4966 59.6497 35.7989 59.7211 36.0865C59.7924 36.3741 59.9474 36.6341 60.1665 36.8336C60.3856 37.0331 60.6589 37.1631 60.9519 37.2073C61.245 37.2515 61.5445 37.2077 61.8126 37.0817C62.0808 36.9556 62.3056 36.7529 62.4585 36.4991C62.6114 36.2453 62.6857 35.9518 62.6718 35.6558V35.6558Z" fill="#6C63FF"/>
<path d="M60.0003 45.7986C59.8431 46.104 59.5857 46.3462 59.2712 46.4843C58.9566 46.6225 58.6042 46.6483 58.2729 46.5575C57.9416 46.4667 57.6516 46.2647 57.4515 45.9854C57.2515 45.7061 57.1535 45.3666 57.1741 45.0237C57.1946 44.6807 57.3325 44.3553 57.5645 44.102C57.7965 43.8486 58.1086 43.6828 58.4484 43.6322C58.7881 43.5816 59.135 43.6494 59.4307 43.8241C59.7265 43.9989 59.9531 44.2701 60.0727 44.5921L59.1365 45.3536L60.1682 45.1134C60.1677 45.3519 60.1102 45.5869 60.0003 45.7986V45.7986Z" fill="#6C63FF"/>
<path d="M59.2602 42.8876C59.0637 42.8968 58.8672 42.8672 58.6821 42.8005C58.497 42.7338 58.3269 42.6313 58.1814 42.4988C58.0359 42.3663 57.9179 42.2065 57.8342 42.0284C57.7505 41.8503 57.7027 41.6575 57.6935 41.461C57.6818 41.2263 57.7262 40.9922 57.8228 40.7781C57.9123 40.5779 58.0446 40.3998 58.2103 40.2563C58.3761 40.1128 58.5712 40.0073 58.7821 39.9473L58.7737 40.5633L59.1132 39.8919C59.5101 39.8733 59.8982 40.0132 60.192 40.2807C60.4859 40.5483 60.6614 40.9216 60.6799 41.3185C60.6985 41.7155 60.5587 42.1035 60.2911 42.3974C60.0236 42.6912 59.6503 42.8667 59.2533 42.8853L59.2602 42.8876Z" fill="#6C63FF"/>
<path d="M62.8974 40.4678C62.6985 40.4811 62.499 40.4545 62.3105 40.3896C62.122 40.3248 61.9484 40.223 61.7997 40.0903C61.651 39.9575 61.5303 39.7965 61.4446 39.6165C61.359 39.4366 61.31 39.2413 61.3007 39.0422C61.2914 38.8431 61.3219 38.6441 61.3904 38.457C61.4589 38.2698 61.564 38.0982 61.6996 37.9521C61.8353 37.806 61.9987 37.6885 62.1802 37.6064C62.3618 37.5242 62.558 37.4791 62.7572 37.4737C63.0372 37.46 63.3154 37.526 63.5594 37.6639L63.2946 38.3891L63.8397 37.8663C64.1322 38.133 64.307 38.5049 64.3255 38.9003C64.3323 39.039 64.3193 39.178 64.287 39.313C64.2125 39.6304 64.0365 39.9149 63.7857 40.1233C63.5349 40.3317 63.2231 40.4527 62.8974 40.4678V40.4678Z" fill="#6C63FF"/>
<path opacity="0.1" d="M62.4699 36.0554C62.1242 36.0931 61.7885 36.2009 61.4413 36.2224C61.0941 36.244 60.713 36.1609 60.4935 35.8906C60.375 35.7459 60.3165 35.5619 60.2164 35.4033C60.1219 35.2556 59.9922 35.1337 59.8391 35.0483C59.7429 35.2382 59.6883 35.4465 59.6789 35.6591C59.6696 35.8718 59.7056 36.084 59.7847 36.2817C59.8637 36.4793 59.984 36.6578 60.1375 36.8054C60.2909 36.9529 60.4741 37.066 60.6747 37.1372C60.8753 37.2084 61.0888 37.236 61.3009 37.2182C61.513 37.2004 61.7189 37.1377 61.9049 37.0341C62.0909 36.9305 62.2526 36.7884 62.3794 36.6174C62.5061 36.4464 62.595 36.2503 62.6401 36.0423C62.5831 36.0454 62.5269 36.0492 62.4699 36.0554Z" fill="black"/>
<path opacity="0.1" d="M62.8971 40.4678C62.639 40.4796 62.3821 40.4244 62.1515 40.3077C61.9209 40.191 61.7244 40.0167 61.5811 39.8016C61.4377 39.5866 61.3523 39.3382 61.3332 39.0804C61.3141 38.8227 61.3619 38.5644 61.4721 38.3306C61.5908 38.411 61.6929 38.5135 61.7731 38.6324C61.8801 38.7933 61.9448 38.9796 62.0703 39.1274C62.3012 39.4023 62.7024 39.4916 63.0634 39.4754C63.4245 39.4592 63.7741 39.3561 64.1344 39.3214C64.1844 39.3168 64.2352 39.3137 64.2883 39.3122C64.2139 39.63 64.0378 39.9149 63.7867 40.1234C63.5356 40.332 63.2232 40.4529 62.8971 40.4678V40.4678Z" fill="black"/>
<path opacity="0.1" d="M59.2602 42.8875C59.0637 42.8967 58.8672 42.8671 58.6821 42.8004C58.497 42.7337 58.3269 42.6312 58.1814 42.4987C58.0359 42.3662 57.9179 42.2064 57.8342 42.0283C57.7505 41.8502 57.7027 41.6574 57.6935 41.4609C57.6818 41.2262 57.7262 40.9921 57.8228 40.778C57.9464 40.8603 58.0536 40.9647 58.1393 41.0859C58.2555 41.2499 58.3286 41.4393 58.4649 41.591C58.7175 41.872 59.1424 41.9713 59.5251 41.9621C59.9077 41.9528 60.2534 41.8635 60.6222 41.835C60.5308 42.1291 60.351 42.3879 60.1073 42.5762C59.8636 42.7645 59.5679 42.8732 59.2602 42.8875V42.8875Z" fill="black"/>
<path opacity="0.1" d="M60.0003 45.7985C59.826 46.1412 59.5266 46.4037 59.1641 46.5317C58.8016 46.6598 58.4038 46.6436 58.0529 46.4866C57.702 46.3295 57.4249 46.0436 57.279 45.688C57.133 45.3323 57.1293 44.9342 57.2687 44.5759C57.392 44.6571 57.5028 44.7559 57.5974 44.8693C57.7399 45.0433 57.8338 45.2404 57.9985 45.402C58.3065 45.7023 58.7992 45.8263 59.2396 45.8378C59.4937 45.8399 59.7478 45.8268 60.0003 45.7985V45.7985Z" fill="black"/>
<path d="M81.6924 48.6055C82.0096 48.0173 81.6493 47.2967 81.2351 46.7716C80.8209 46.2465 80.3158 45.7014 80.3266 45.0324C80.342 44.0723 81.3613 43.5049 82.1743 42.9952C82.779 42.6175 83.3367 42.1693 83.8358 41.6602C84.0448 41.4641 84.2176 41.2326 84.3462 40.9765C84.5148 40.6008 84.5094 40.1735 84.5002 39.7624C84.4648 38.3909 84.397 37.0215 84.2969 35.6542" stroke="#3F3D56" stroke-width="4" stroke-miterlimit="10"/>
<path d="M85.8459 35.5788C85.8343 35.328 85.7598 35.084 85.6291 34.8696C85.4985 34.6551 85.3159 34.477 85.0983 34.3516L84.7626 35.0152L84.7726 34.2115C84.6125 34.1647 84.4458 34.1447 84.2791 34.1522C83.9832 34.1661 83.6979 34.2674 83.4595 34.4434C83.2211 34.6193 83.0403 34.8621 82.9398 35.1408C82.8394 35.4196 82.8238 35.7219 82.8951 36.0095C82.9665 36.2971 83.1215 36.5571 83.3406 36.7566C83.5597 36.9561 83.833 37.0861 84.126 37.1303C84.419 37.1745 84.7185 37.1307 84.9867 37.0047C85.2549 36.8786 85.4796 36.6759 85.6325 36.4221C85.7855 36.1683 85.8597 35.8748 85.8459 35.5788V35.5788Z" fill="#6C63FF"/>
<path d="M83.1742 45.7215C83.0169 46.027 82.7595 46.2691 82.445 46.4072C82.1305 46.5454 81.778 46.5712 81.4467 46.4804C81.1154 46.3896 80.8254 46.1876 80.6253 45.9083C80.4253 45.6291 80.3273 45.2895 80.3479 44.9466C80.3685 44.6037 80.5063 44.2783 80.7383 44.0249C80.9703 43.7716 81.2824 43.6057 81.6222 43.5551C81.962 43.5046 82.3088 43.5723 82.6046 43.7471C82.9003 43.9219 83.127 44.193 83.2465 44.5151L82.3103 45.2765L83.342 45.0363C83.3416 45.2748 83.284 45.5098 83.1742 45.7215V45.7215Z" fill="#6C63FF"/>
<path d="M82.4343 42.8106C82.2378 42.8198 82.0413 42.7902 81.8562 42.7235C81.6711 42.6568 81.5009 42.5543 81.3554 42.4218C81.2099 42.2893 81.092 42.1295 81.0083 41.9514C80.9246 41.7733 80.8767 41.5805 80.8675 41.3839C80.8559 41.1493 80.9002 40.9152 80.9969 40.701C81.0864 40.5009 81.2187 40.3228 81.3844 40.1793C81.5502 40.0357 81.7453 39.9303 81.9562 39.8703L81.9477 40.4862L82.2873 39.8149H82.2911C82.4877 39.8057 82.6841 39.8353 82.8692 39.902C83.0543 39.9687 83.2245 40.0712 83.37 40.2037C83.5155 40.3362 83.6335 40.496 83.7172 40.6741C83.8009 40.8522 83.8487 41.045 83.8579 41.2415C83.8671 41.4381 83.8375 41.6345 83.7708 41.8196C83.7041 42.0047 83.6016 42.1749 83.4691 42.3204C83.3366 42.4659 83.1768 42.5838 82.9987 42.6675C82.8206 42.7513 82.6278 42.7991 82.4313 42.8083L82.4343 42.8106Z" fill="#6C63FF"/>
<path d="M86.0715 40.3909C85.8726 40.4041 85.6731 40.3775 85.4846 40.3126C85.2961 40.2478 85.1225 40.146 84.9738 40.0133C84.8251 39.8805 84.7044 39.7195 84.6187 39.5395C84.533 39.3595 84.4841 39.1643 84.4748 38.9652C84.4655 38.7661 84.496 38.5671 84.5645 38.38C84.633 38.1928 84.7381 38.0211 84.8737 37.8751C85.0094 37.729 85.1728 37.6115 85.3544 37.5293C85.536 37.4472 85.7321 37.4021 85.9314 37.3967C86.2114 37.383 86.4895 37.449 86.7336 37.5868L86.4688 38.3121L87.0139 37.7893C87.3064 38.056 87.4812 38.4279 87.4997 38.8233C87.5065 38.962 87.4935 39.1009 87.4612 39.236C87.3867 39.5534 87.2107 39.8379 86.9599 40.0463C86.7091 40.2547 86.3972 40.3757 86.0715 40.3909V40.3909Z" fill="#6C63FF"/>
<path opacity="0.1" d="M85.644 35.9784C85.2983 36.0161 84.9626 36.1239 84.6154 36.1454C84.2682 36.167 83.887 36.0838 83.6676 35.8136C83.549 35.6688 83.4905 35.4848 83.3904 35.3262C83.2959 35.1786 83.1663 35.0567 83.0132 34.9713C82.917 35.1612 82.8624 35.3694 82.853 35.5821C82.8436 35.7948 82.8797 36.007 82.9587 36.2046C83.0378 36.4023 83.1581 36.5808 83.3115 36.7283C83.465 36.8759 83.6481 36.989 83.8487 37.0602C84.0494 37.1314 84.2629 37.159 84.475 37.1412C84.6871 37.1234 84.893 37.0606 85.079 36.957C85.2649 36.8534 85.4267 36.7114 85.5535 36.5404C85.6802 36.3694 85.7691 36.1733 85.8141 35.9653C85.7572 35.9683 85.701 35.9722 85.644 35.9784Z" fill="black"/>
<path opacity="0.1" d="M86.0715 40.3908C85.8133 40.4026 85.5565 40.3474 85.3259 40.2307C85.0953 40.114 84.8988 39.9397 84.7554 39.7246C84.612 39.5096 84.5266 39.2612 84.5075 39.0034C84.4884 38.7457 84.5362 38.4874 84.6464 38.2535C84.7651 38.334 84.8673 38.4364 84.9474 38.5553C85.0544 38.7163 85.1191 38.9026 85.2446 39.0504C85.4756 39.3253 85.8767 39.4146 86.2378 39.3984C86.5989 39.3822 86.9484 39.2791 87.3087 39.2444C87.3588 39.2398 87.4096 39.2367 87.4627 39.2352C87.3883 39.553 87.2121 39.8379 86.961 40.0465C86.7099 40.255 86.3976 40.3759 86.0715 40.3908V40.3908Z" fill="black"/>
<path opacity="0.1" d="M82.4343 42.8106C82.2378 42.8198 82.0413 42.7903 81.8562 42.7235C81.6711 42.6568 81.5009 42.5543 81.3554 42.4218C81.2099 42.2893 81.092 42.1295 81.0083 41.9514C80.9246 41.7734 80.8767 41.5805 80.8675 41.384C80.8559 41.1493 80.9002 40.9152 80.9969 40.701C81.1204 40.7834 81.2277 40.8878 81.3133 41.009C81.4296 41.173 81.5027 41.3624 81.639 41.5141C81.8915 41.7951 82.3165 41.8944 82.6992 41.8852C83.0703 41.8775 83.4275 41.7866 83.7963 41.7582C83.7049 42.0522 83.5251 42.311 83.2814 42.4994C83.0377 42.6877 82.7419 42.7964 82.4343 42.8106V42.8106Z" fill="black"/>
<path opacity="0.1" d="M83.1743 45.7215C83 46.0641 82.7006 46.3266 82.3382 46.4547C81.9757 46.5828 81.5779 46.5666 81.227 46.4096C80.8761 46.2525 80.599 45.9666 80.453 45.611C80.3071 45.2553 80.3034 44.8572 80.4427 44.4989C80.5661 44.5801 80.6768 44.6789 80.7715 44.7922C80.9139 44.9662 81.0078 45.1633 81.1726 45.325C81.4806 45.6253 81.9733 45.7492 82.4137 45.7608C82.6678 45.7628 82.9218 45.7497 83.1743 45.7215V45.7215Z" fill="black"/>
<path d="M8.46367 47.6045C8.14647 47.0163 8.50679 46.2957 8.92099 45.7706C9.3352 45.2455 9.84026 44.7004 9.82948 44.0314C9.81408 43.0713 8.79473 42.5039 7.98171 41.9942C7.37705 41.6165 6.81933 41.1684 6.32026 40.6592C6.11127 40.4631 5.93847 40.2317 5.80982 39.9755C5.64121 39.5998 5.6466 39.1725 5.65584 38.7614C5.69125 37.3899 5.759 36.0205 5.85909 34.6532" stroke="#3F3D56" stroke-width="4" stroke-miterlimit="10"/>
<path d="M4.30998 34.578C4.32156 34.3271 4.39611 34.0832 4.52676 33.8687C4.65741 33.6542 4.83995 33.4761 5.05756 33.3507L5.39324 34.0144L5.38323 33.2106C5.54335 33.1638 5.71009 33.1438 5.87674 33.1513C6.17272 33.1652 6.45795 33.2665 6.69635 33.4425C6.93475 33.6185 7.11562 33.8612 7.21608 34.14C7.31654 34.4187 7.33208 34.721 7.26074 35.0086C7.1894 35.2962 7.03439 35.5562 6.81529 35.7557C6.5962 35.9552 6.32287 36.0852 6.02987 36.1294C5.73686 36.1736 5.43734 36.1298 5.16918 36.0038C4.90102 35.8777 4.67626 35.675 4.52333 35.4212C4.37039 35.1674 4.29615 34.8739 4.30998 34.578V34.578Z" fill="#6C63FF"/>
<path d="M6.98156 44.7207C7.13876 45.0261 7.39621 45.2682 7.71073 45.4064C8.02524 45.5446 8.3777 45.5704 8.709 45.4796C9.0403 45.3887 9.3303 45.1867 9.53036 44.9075C9.73042 44.6282 9.82837 44.2887 9.8078 43.9457C9.78723 43.6028 9.64938 43.2774 9.41738 43.0241C9.18537 42.7707 8.87331 42.6049 8.53352 42.5543C8.19374 42.5037 7.84689 42.5715 7.55115 42.7463C7.25541 42.921 7.02875 43.1922 6.90919 43.5142L7.84539 44.2757L6.81372 44.0355C6.81415 44.274 6.8717 44.5089 6.98156 44.7207V44.7207Z" fill="#6C63FF"/>
<path d="M7.72139 41.8097C7.91794 41.8189 8.11438 41.7893 8.2995 41.7226C8.48461 41.6559 8.65477 41.5534 8.80026 41.4209C8.94575 41.2884 9.06372 41.1286 9.14743 40.9505C9.23114 40.7724 9.27895 40.5796 9.28814 40.3831C9.2998 40.1484 9.25546 39.9143 9.1588 39.7002C9.0693 39.5 8.93702 39.3219 8.77129 39.1784C8.60555 39.0349 8.41038 38.9294 8.1995 38.8694L8.20797 39.4854L7.86844 38.814C7.47149 38.7954 7.08342 38.9353 6.7896 39.2028C6.49578 39.4704 6.32027 39.8437 6.30169 40.2406C6.28311 40.6376 6.42297 41.0257 6.69052 41.3195C6.95806 41.6133 7.33137 41.7888 7.72832 41.8074L7.72139 41.8097Z" fill="#6C63FF"/>
<path d="M4.08448 39.3897C4.28336 39.4029 4.48287 39.3763 4.67135 39.3114C4.85983 39.2466 5.03349 39.1448 5.18217 39.0121C5.33085 38.8793 5.45156 38.7183 5.53724 38.5383C5.62292 38.3584 5.67185 38.1631 5.68117 37.964C5.69048 37.7649 5.66 37.566 5.5915 37.3788C5.523 37.1916 5.41786 37.02 5.28223 36.8739C5.1466 36.7279 4.98321 36.6103 4.80161 36.5282C4.62 36.446 4.42384 36.4009 4.2246 36.3955C3.94589 36.3826 3.66918 36.4485 3.42621 36.5857L3.69106 37.3109L3.14212 36.7905C2.85011 37.0566 2.67543 37.4275 2.65631 37.8221C2.64949 37.9608 2.66245 38.0998 2.6948 38.2348C2.76931 38.5522 2.9453 38.8367 3.19608 39.0451C3.44686 39.2535 3.75876 39.3745 4.08448 39.3897Z" fill="#6C63FF"/>
<path opacity="0.1" d="M4.5117 34.9775C4.85739 35.0152 5.19307 35.123 5.54029 35.1446C5.88752 35.1661 6.26862 35.083 6.48805 34.8127C6.60661 34.668 6.66513 34.484 6.76521 34.3254C6.85973 34.1777 6.98934 34.0558 7.14247 33.9705C7.23864 34.1604 7.29324 34.3686 7.30263 34.5813C7.31202 34.7939 7.27599 35.0062 7.19693 35.2038C7.11787 35.4014 6.9976 35.58 6.84413 35.7275C6.69067 35.875 6.50753 35.9882 6.30691 36.0593C6.1063 36.1305 5.89282 36.1582 5.68069 36.1404C5.46856 36.1226 5.26266 36.0598 5.0767 35.9562C4.89074 35.8526 4.72899 35.7106 4.60223 35.5396C4.47547 35.3685 4.3866 35.1725 4.34155 34.9644C4.39853 34.9675 4.45473 34.9714 4.5117 34.9775Z" fill="black"/>
<path opacity="0.1" d="M4.08433 39.39C4.34251 39.4017 4.59935 39.3466 4.82994 39.2299C5.06053 39.1131 5.25704 38.9388 5.40042 38.7238C5.5438 38.5087 5.62918 38.2603 5.64828 38.0026C5.66737 37.7448 5.61954 37.4865 5.50942 37.2527C5.39072 37.3331 5.28853 37.4356 5.20839 37.5545C5.10137 37.7154 5.0367 37.9017 4.91121 38.0495C4.68023 38.3244 4.27912 38.4137 3.91803 38.3975C3.55695 38.3814 3.20741 38.2782 2.8471 38.2436C2.79705 38.2389 2.74624 38.2359 2.69312 38.2343C2.76755 38.5522 2.94371 38.837 3.19481 39.0456C3.44591 39.2542 3.75824 39.3751 4.08433 39.39V39.39Z" fill="black"/>
<path opacity="0.1" d="M7.72134 41.8097C7.91789 41.8189 8.11433 41.7893 8.29944 41.7226C8.48456 41.6559 8.65472 41.5534 8.80021 41.4209C8.9457 41.2884 9.06367 41.1286 9.14738 40.9505C9.23109 40.7725 9.27891 40.5796 9.28809 40.3831C9.29975 40.1484 9.25541 39.9143 9.15875 39.7002C9.03521 39.7825 8.92794 39.8869 8.84232 40.0082C8.72606 40.1721 8.65292 40.3615 8.51665 40.5132C8.26412 40.7942 7.83913 40.8935 7.45649 40.8843C7.0854 40.8766 6.72816 40.7858 6.35938 40.7573C6.45079 41.0514 6.63056 41.3101 6.87424 41.4984C7.11793 41.6868 7.4137 41.7954 7.72134 41.8097V41.8097Z" fill="black"/>
<path opacity="0.1" d="M6.98145 44.7207C7.15578 45.0633 7.45516 45.3258 7.81763 45.4539C8.1801 45.5819 8.57793 45.5658 8.92882 45.4087C9.27971 45.2517 9.5568 44.9657 9.70277 44.6101C9.84875 44.2545 9.85243 43.8563 9.71306 43.498C9.58972 43.5792 9.47896 43.678 9.38431 43.7914C9.24188 43.9654 9.14795 44.1625 8.98319 44.3242C8.67523 44.6244 8.18249 44.7484 7.74211 44.7599C7.488 44.762 7.23399 44.7489 6.98145 44.7207V44.7207Z" fill="black"/>
<path d="M51.8531 40.39C51.8545 40.2033 51.8122 40.0189 51.7296 39.8515C51.647 39.6841 51.5263 39.5384 51.3773 39.426C51.3588 38.72 50.8553 38.1434 50.2078 38.0541C50.1578 37.8142 50.0455 37.5917 49.8822 37.409C49.719 37.2263 49.5105 37.0898 49.2777 37.0132V37.0132C49.2211 36.9952 49.1632 36.9816 49.1045 36.9724H49.0876L49.0575 36.9685H49.0321H49.0067H48.9736H48.9536H48.8989C48.2384 36.9685 47.6887 37.4736 47.5755 38.1395C47.1482 38.041 46.7563 38.1688 46.6862 38.439C46.6682 38.5106 46.6722 38.5861 46.6978 38.6554C46.7702 38.8648 47.0058 39.065 47.3253 39.1643L47.3668 39.1766C47.3876 39.1827 47.4084 39.1874 47.4292 39.192H47.4431C47.3256 39.4424 47.3089 39.7285 47.3965 39.9909C47.484 40.2533 47.6691 40.472 47.9135 40.6017C47.9038 40.6069 47.8946 40.6129 47.8858 40.6194C47.8463 40.6556 47.8148 40.6997 47.7934 40.7487C47.7162 40.8842 47.6562 41.0288 47.6147 41.1791C47.584 41.3077 47.5786 41.4424 47.5378 41.5694C47.4677 41.8004 47.2875 42.0029 47.2668 42.2485C47.2575 42.3578 47.2752 42.4864 47.1975 42.5611C47.1781 42.5777 47.1575 42.5929 47.1359 42.6065C47.0814 42.6438 47.0352 42.692 47.0004 42.7482C46.9777 42.7946 46.9472 42.8368 46.9103 42.8729C46.8402 42.926 46.7247 42.9206 46.6901 43.0022C46.6555 43.0838 46.7448 43.1801 46.724 43.2694C46.707 43.3418 46.6277 43.3749 46.57 43.4234C46.5054 43.4934 46.4603 43.5791 46.4391 43.672C46.3241 43.6942 46.2056 43.6908 46.0921 43.6619C45.9786 43.633 45.8728 43.5794 45.7824 43.505C45.8134 43.5843 45.8361 43.6666 45.8501 43.7506C45.7585 43.6528 45.6076 43.6243 45.496 43.5735C45.352 43.5075 45.2235 43.4121 45.1187 43.2933L45.3204 43.2655L44.4274 41.9105L44.164 41.8566L44.4004 42.3101C44.3811 42.3194 44.3641 42.3329 44.3507 42.3497C44.3374 42.3665 44.3281 42.3862 44.3234 42.4071C44.3107 42.4574 44.3076 42.5096 44.3142 42.5611C44.3267 42.6826 44.347 42.8032 44.375 42.9222L44.4435 43.2409C44.4493 43.2708 44.4568 43.3004 44.4658 43.3294C44.3766 43.3262 44.2873 43.3363 44.201 43.3595C44.024 43.294 43.8396 43.2503 43.6521 43.2293C43.6108 43.2221 43.5684 43.2242 43.5281 43.2355C43.4823 43.2566 43.4426 43.2889 43.4126 43.3294C43.2586 43.5075 43.122 43.6998 43.0046 43.9038C42.5249 44.7384 41.8844 45.4667 41.2846 46.2212C40.8704 46.3898 40.4531 46.5499 40.0351 46.7085L39.1366 47.0511C38.9572 47.1197 38.7709 47.1897 38.58 47.1774C38.4937 47.172 38.389 47.1589 38.3405 47.2321C38.3169 47.2683 38.2985 47.3077 38.2859 47.3491C38.2543 47.3491 38.2227 47.3568 38.1935 47.3583H38.1881C38.1311 47.2167 38.0818 47.065 37.9725 46.9618C37.9505 46.9652 37.9297 46.974 37.9119 46.9875C37.8942 47.0009 37.8801 47.0186 37.8709 47.0388C37.8493 47.0789 37.8362 47.1227 37.8116 47.1597C37.7631 47.2305 37.6792 47.2652 37.6191 47.3252C37.5591 47.3853 37.5213 47.4792 37.4567 47.5377C37.3661 47.6035 37.26 47.6447 37.1487 47.6571C36.982 47.6963 36.8213 47.7574 36.6706 47.8388C36.615 47.8729 36.5556 47.9003 36.4935 47.9204C36.4253 47.9335 36.3554 47.9358 36.2864 47.9273L35.8106 47.8926C35.7683 47.8871 35.7253 47.8889 35.6836 47.898C35.6346 47.916 35.5929 47.9497 35.565 47.9938C35.5372 48.038 35.5247 48.0901 35.5296 48.1421C35.5354 48.1937 35.5517 48.2435 35.5775 48.2885C35.6034 48.3336 35.6381 48.3728 35.6797 48.4039C35.7623 48.4644 35.8537 48.5119 35.9507 48.5448C36.3642 48.7049 36.7904 48.8298 37.2249 48.9182V49.0144C37.5261 49.1661 37.8586 49.2452 38.1958 49.2454C38.2206 49.2473 38.2455 49.2428 38.2681 49.2323C38.2993 49.2089 38.3209 49.1749 38.329 49.1368C38.4299 48.8349 38.4938 48.5218 38.5191 48.2045C38.5786 48.2006 38.6368 48.1857 38.6908 48.1606C38.8548 48.1159 39.0173 48.2283 39.1859 48.2468C39.3937 48.2691 39.587 48.1483 39.7833 48.0736C39.8118 48.0628 39.8403 48.0536 39.8688 48.0443C39.8128 48.1168 39.7466 48.1808 39.6724 48.2345C39.5908 48.293 39.4992 48.3361 39.4191 48.3969C39.3526 48.4577 39.2813 48.5131 39.2059 48.5625C39.1527 48.5872 39.0979 48.6083 39.0419 48.6256C38.9606 48.6552 38.8831 48.6942 38.8109 48.7418C38.7462 48.78 38.6914 48.8327 38.6508 48.8958C38.6303 48.9253 38.6178 48.9595 38.6143 48.9952C38.6108 49.0309 38.6165 49.0669 38.6308 49.0998C38.6452 49.1327 38.6677 49.1613 38.6963 49.183C38.7248 49.2047 38.7585 49.2188 38.794 49.2238C38.8583 49.2352 38.9239 49.237 38.9888 49.2292C39.2459 49.2099 39.5023 49.1861 39.7587 49.163C39.8672 49.1557 39.975 49.1403 40.0813 49.1168C40.1375 49.1029 40.1929 49.0845 40.2491 49.0698C40.345 49.0445 40.4433 49.0298 40.5424 49.0259C40.5712 49.0237 40.6001 49.0265 40.6279 49.0344C40.6879 49.0537 40.7303 49.1114 40.7911 49.1268C40.8306 49.1306 40.8704 49.1251 40.9074 49.1106C41.095 49.0699 41.2866 49.0495 41.4786 49.0498C41.5626 49.0452 41.6611 49.029 41.7004 48.9513C41.7481 48.855 41.668 48.7472 41.6365 48.6433C41.6204 48.5772 41.6116 48.5096 41.6103 48.4416C41.5956 48.2738 41.5475 48.1107 41.4686 47.9619C41.4267 47.8925 41.3914 47.8193 41.3631 47.7433C41.7311 47.6033 42.0831 47.4248 42.4133 47.2105C42.6027 47.0927 42.7982 46.9657 43.0123 46.9226C43.2617 46.8725 43.5189 46.9387 43.7645 47.0096C44.3495 47.1788 44.9249 47.3795 45.4883 47.6109C45.7577 47.721 46.0272 47.838 46.3028 47.9188C46.3834 48.0276 46.4809 48.1227 46.5915 48.2006C46.7763 48.3199 47.0019 48.3546 47.219 48.3715C47.5123 48.3983 47.8068 48.4094 48.1013 48.4046C48.3261 48.4008 48.5579 48.3854 48.7588 48.283C48.8079 48.2578 48.8541 48.2273 48.8966 48.1921C49.0506 48.2199 49.2084 48.1375 49.3293 48.032C49.4893 47.8959 49.6046 47.7148 49.6604 47.5123C49.7312 47.2344 49.6765 46.9102 49.8475 46.6831C49.8929 46.6223 49.9522 46.573 49.9968 46.5114C50.0518 46.429 50.0788 46.331 50.0738 46.232L50.0815 46.2204C50.1202 46.1311 50.1461 46.0367 50.1585 45.9402C50.1788 45.8647 50.2045 45.7909 50.2355 45.7192C50.3223 45.5044 50.3978 45.2852 50.4618 45.0625C50.5063 44.9148 50.5413 44.7643 50.5665 44.6121C50.585 44.4905 50.5958 44.368 50.6058 44.2456C50.6182 44.054 50.6554 43.8648 50.7167 43.6828C50.8686 43.2485 50.9545 42.7938 50.9715 42.334C50.9715 42.3247 50.9715 42.3162 50.9715 42.307C51.195 42.2825 51.4014 42.1755 51.5502 42.0069C51.699 41.8383 51.7795 41.6203 51.7761 41.3954C51.7763 41.2599 51.7479 41.1259 51.6929 41.002C51.7991 40.8156 51.8544 40.6045 51.8531 40.39V40.39ZM47.4993 45.6799C47.5124 45.7269 47.5278 45.7739 47.5431 45.8208C47.4723 45.7508 47.4023 45.6784 47.3307 45.6091C47.3591 45.6176 47.3876 45.6268 47.4153 45.6368C47.4449 45.6485 47.4732 45.663 47.5 45.6799H47.4993ZM47.1543 45.449C46.734 45.084 46.2474 44.8007 45.817 44.4481C46.048 44.5644 46.279 44.6991 46.5099 44.8284C46.7789 44.9824 47.0509 45.1297 47.326 45.2704C47.2809 45.3388 47.2235 45.3984 47.1567 45.4459L47.1543 45.449ZM47.3337 44.5297L47.3538 44.5089C47.3538 44.5605 47.3538 44.609 47.3538 44.6529C47.316 44.6406 47.2768 44.6283 47.2406 44.6144C47.2738 44.5873 47.3052 44.558 47.3345 44.5266L47.3337 44.5297ZM43.6328 45.5183C43.8059 45.3225 43.9565 45.1079 44.0817 44.8785C44.248 45.1703 44.519 45.3805 44.7499 45.6245C44.3789 45.5722 44.007 45.5314 43.6336 45.5152L43.6328 45.5183Z" fill="url(#paint0_linear)"/>
<path d="M44.2334 41.9689L44.499 42.0228L45.4036 43.3593L45.004 43.4132L44.2334 41.9689Z" fill="#2F2E41"/>
<path d="M37.8008 47.3939C37.8724 47.6307 37.9607 47.8623 38.0649 48.0867C38.3646 48.024 38.6595 47.9399 38.9472 47.835C38.8915 47.7483 38.8303 47.6652 38.764 47.5863C38.6932 47.5077 38.6087 47.4427 38.5145 47.3946C38.4229 47.3546 38.3097 47.3846 38.2119 47.39C38.0749 47.3951 37.9378 47.3964 37.8008 47.3939Z" fill="#FBBEBE"/>
<path d="M38.5161 47.7511C38.3667 47.7041 38.2751 47.5532 38.2142 47.4077C38.1534 47.2622 38.1041 47.1036 37.9887 46.9966C37.9667 47 37.9459 47.0089 37.9282 47.0223C37.9104 47.0357 37.8963 47.0533 37.887 47.0736C37.8647 47.1121 37.8516 47.1559 37.8262 47.1929C37.7785 47.2622 37.6938 47.2961 37.633 47.3554C37.5721 47.4146 37.5344 47.5047 37.469 47.564C37.3782 47.6293 37.2721 47.6701 37.161 47.6826C36.9932 47.7206 36.8311 47.7807 36.6791 47.8612C36.6228 47.8938 36.5628 47.9196 36.5004 47.9382C36.4317 47.9513 36.3613 47.9536 36.2918 47.9451L35.8121 47.9105C35.7695 47.9052 35.7263 47.9072 35.6843 47.9166C35.6355 47.9336 35.5937 47.9665 35.5658 48.0101C35.5379 48.0537 35.5254 48.1053 35.5304 48.1568C35.5367 48.2081 35.5537 48.2576 35.5802 48.302C35.6067 48.3464 35.6422 48.3848 35.6843 48.4147C35.7677 48.4743 35.8596 48.521 35.9569 48.5533C36.3748 48.7105 36.8048 48.8333 37.2426 48.9206V49.0153C37.5469 49.1659 37.8816 49.2449 38.2212 49.2462C38.2475 49.2486 38.2741 49.244 38.2982 49.2331C38.3294 49.2103 38.3512 49.1769 38.3598 49.1392C38.4748 48.8028 38.542 48.4519 38.5592 48.0968C38.568 48.007 38.5612 47.9163 38.5391 47.8288C38.513 47.7426 38.6023 47.7788 38.5191 47.7449" fill="#2F2E41"/>
<path d="M47.7117 45.9432C46.2897 46.0295 44.8854 45.6122 43.461 45.5675C43.2843 45.5568 43.1068 45.5681 42.9329 45.6014C42.7515 45.65 42.576 45.7182 42.4094 45.8047C41.6464 46.1596 40.8565 46.4537 40.0673 46.7478L39.1619 47.085C38.9802 47.152 38.7931 47.2205 38.5999 47.209C38.5137 47.2036 38.4082 47.1905 38.3589 47.2629C38.2119 47.4808 38.2819 47.8018 38.3789 48.0466C38.4105 48.1236 38.4636 48.2122 38.5483 48.2214C38.6082 48.2173 38.6669 48.2024 38.7215 48.1775C38.8863 48.1336 39.0511 48.2445 39.2204 48.2622C39.4306 48.2845 39.6254 48.1652 39.8233 48.0921C40.1512 47.9712 40.51 47.975 40.8549 47.9173C41.4339 47.8211 41.9698 47.5524 42.4717 47.2459C42.6627 47.1297 42.8567 47.0049 43.0753 46.9626C43.3271 46.9133 43.5865 46.978 43.8337 47.0481C44.4229 47.2149 45.0029 47.4125 45.5713 47.6401C45.8672 47.7687 46.1706 47.8792 46.4798 47.9712C47.1538 48.1486 47.8667 48.1071 48.5155 47.8526C48.7464 47.7625 48.9897 47.6039 49.0028 47.3583C49.0105 47.2182 48.9019 47.095 48.8296 46.9734C48.7826 46.8964 48.7364 46.8194 48.6856 46.7463C48.4408 46.389 48.1436 45.9171 47.7117 45.9432Z" fill="#2F2E41"/>
<path opacity="0.1" d="M47.7117 45.9432C46.2897 46.0295 44.8854 45.6122 43.461 45.5675C43.2843 45.5568 43.1068 45.5681 42.9329 45.6014C42.7515 45.65 42.576 45.7182 42.4094 45.8047C41.6464 46.1596 40.8565 46.4537 40.0673 46.7478L39.1619 47.085C38.9802 47.152 38.7931 47.2205 38.5999 47.209C38.5137 47.2036 38.4082 47.1905 38.3589 47.2629C38.2119 47.4808 38.2819 47.8018 38.3789 48.0466C38.4105 48.1236 38.4636 48.2122 38.5483 48.2214C38.6082 48.2173 38.6669 48.2024 38.7215 48.1775C38.8863 48.1336 39.0511 48.2445 39.2204 48.2622C39.4306 48.2845 39.6254 48.1652 39.8233 48.0921C40.1512 47.9712 40.51 47.975 40.8549 47.9173C41.4339 47.8211 41.9698 47.5524 42.4717 47.2459C42.6627 47.1297 42.8567 47.0049 43.0753 46.9626C43.3271 46.9133 43.5865 46.978 43.8337 47.0481C44.4229 47.2149 45.0029 47.4125 45.5713 47.6401C45.8672 47.7687 46.1706 47.8792 46.4798 47.9712C47.1538 48.1486 47.8667 48.1071 48.5155 47.8526C48.7464 47.7625 48.9897 47.6039 49.0028 47.3583C49.0105 47.2182 48.9019 47.095 48.8296 46.9734C48.7826 46.8964 48.7364 46.8194 48.6856 46.7463C48.4408 46.389 48.1436 45.9171 47.7117 45.9432Z" fill="black"/>
<path d="M40.53 47.4631C40.7528 47.5386 40.9771 47.6084 41.2029 47.6725C41.33 47.4639 41.5671 47.3191 41.621 47.0812C41.6241 47.0709 41.6241 47.06 41.621 47.0497C41.6151 47.0395 41.6062 47.0315 41.5956 47.0266C41.4333 46.937 41.2532 46.8845 41.0682 46.8726C40.9219 46.8634 40.8557 47.0158 40.7895 47.1228C40.7664 47.1659 40.5893 47.4831 40.53 47.4631Z" fill="#FBBEBE"/>
<path d="M40.8433 47.3105C40.7768 47.2994 40.7134 47.2746 40.6571 47.2376C40.6007 47.2006 40.5527 47.1523 40.5161 47.0957C40.4846 47.041 40.4515 46.9671 40.3883 46.971C40.3252 46.9748 40.3036 47.0441 40.2905 47.1019C40.2479 47.3176 40.1863 47.5291 40.1065 47.734C40.0261 47.9394 39.8898 48.1184 39.7131 48.2506C39.6307 48.3075 39.5391 48.3506 39.4583 48.4107C39.3909 48.4708 39.3188 48.5254 39.2427 48.5739C39.1891 48.5984 39.1338 48.619 39.0772 48.6355C38.9942 48.6645 38.9149 48.703 38.8408 48.7502C38.7759 48.7883 38.7208 48.841 38.6799 48.9042C38.6602 48.9363 38.6486 48.9727 38.6462 49.0103C38.6438 49.0479 38.6506 49.0855 38.6661 49.1198C38.6826 49.1477 38.7049 49.1718 38.7315 49.1905C38.758 49.2092 38.7882 49.2221 38.82 49.2283C38.8849 49.2391 38.951 49.2407 39.0164 49.233C39.2758 49.2137 39.5345 49.1906 39.7932 49.1675C39.9027 49.1608 40.0116 49.1458 40.1189 49.1229C40.1758 49.109 40.2313 49.0905 40.2875 49.0759C40.3845 49.0512 40.4838 49.0367 40.5839 49.0328C40.6129 49.0306 40.6421 49.0335 40.6701 49.0413C40.7302 49.0605 40.7725 49.1182 40.8341 49.1321C40.8738 49.1362 40.9139 49.131 40.9511 49.1167C41.1405 49.0766 41.3335 49.0565 41.527 49.0567C41.6117 49.052 41.7118 49.0359 41.7503 48.9596C41.7988 48.8649 41.7187 48.7587 41.6864 48.6571C41.6704 48.592 41.6614 48.5254 41.6594 48.4584C41.6448 48.293 41.5964 48.1324 41.517 47.9865C41.4508 47.8648 41.363 47.7309 41.4069 47.6015C41.4305 47.5612 41.4454 47.5163 41.4508 47.4699C41.44 47.2612 40.9604 47.3382 40.8433 47.3105Z" fill="#2F2E41"/>
<path d="M45.5797 43.6628C45.3278 43.5516 45.1259 43.3511 45.013 43.1C44.9899 43.0461 44.9699 42.9899 44.9476 42.9352C44.8727 42.7545 44.7567 42.5937 44.6088 42.4656C44.593 42.4481 44.5736 42.4344 44.5519 42.4252C44.5303 42.416 44.5069 42.4117 44.4833 42.4124C44.4606 42.4192 44.4401 42.4319 44.4238 42.4492C44.4076 42.4665 44.3962 42.4878 44.391 42.511C44.3778 42.5612 44.3744 42.6135 44.3809 42.665C44.3941 42.7844 44.4147 42.903 44.4425 43.0199L44.5118 43.334C44.5206 43.3823 44.5351 43.4293 44.5549 43.4741C44.5846 43.5268 44.6237 43.5736 44.6704 43.612C44.7336 43.6705 44.7975 43.7267 44.8621 43.7813C44.8978 43.8136 44.9368 43.842 44.9784 43.866C45.0467 43.8984 45.1197 43.9197 45.1947 43.9292C45.4773 43.9815 45.7645 44.057 46.0024 44.2371C46.0024 44.2371 46.0024 44.0269 45.997 44.0061C45.9941 43.9452 45.9732 43.8866 45.9369 43.8375C45.8476 43.7413 45.6936 43.7128 45.5797 43.6628Z" fill="#FBBEBE"/>
<path opacity="0.1" d="M45.5797 43.6628C45.3278 43.5516 45.1259 43.3511 45.013 43.1C44.9899 43.0461 44.9699 42.9899 44.9476 42.9352C44.8727 42.7545 44.7567 42.5937 44.6088 42.4656C44.593 42.4481 44.5736 42.4344 44.5519 42.4252C44.5303 42.416 44.5069 42.4117 44.4833 42.4124C44.4606 42.4192 44.4401 42.4319 44.4238 42.4492C44.4076 42.4665 44.3962 42.4878 44.391 42.511C44.3778 42.5612 44.3744 42.6135 44.3809 42.665C44.3941 42.7844 44.4147 42.903 44.4425 43.0199L44.5118 43.334C44.5206 43.3823 44.5351 43.4293 44.5549 43.4741C44.5846 43.5268 44.6237 43.5736 44.6704 43.612C44.7336 43.6705 44.7975 43.7267 44.8621 43.7813C44.8978 43.8136 44.9368 43.842 44.9784 43.866C45.0467 43.8984 45.1197 43.9197 45.1947 43.9292C45.4773 43.9815 45.7645 44.057 46.0024 44.2371C46.0024 44.2371 46.0024 44.0269 45.997 44.0061C45.9941 43.9452 45.9732 43.8866 45.9369 43.8375C45.8476 43.7413 45.6936 43.7128 45.5797 43.6628Z" fill="black"/>
<path d="M48.4748 41.2608C48.6658 41.2608 48.8205 41.105 48.8205 40.9128C48.8205 40.7206 48.6658 40.5648 48.4748 40.5648C48.2839 40.5648 48.1292 40.7206 48.1292 40.9128C48.1292 41.105 48.2839 41.2608 48.4748 41.2608Z" fill="#2F2E41"/>
<path d="M48.2607 40.7025C48.1679 40.6813 48.0705 40.6953 47.9874 40.7418C47.9475 40.7771 47.9157 40.8207 47.8943 40.8696C47.8165 41.0025 47.756 41.1448 47.7141 41.293C47.6833 41.42 47.6779 41.5525 47.6371 41.678C47.5663 41.9089 47.3846 42.1053 47.3638 42.3462C47.3546 42.454 47.3723 42.5811 47.2937 42.6542C47.2742 42.6706 47.2534 42.6852 47.2314 42.6981C47.1767 42.7348 47.1303 42.7825 47.0951 42.8382C47.0716 42.8882 47.0389 42.9334 46.9989 42.9714C46.928 43.0238 46.8118 43.0184 46.7771 43.0992C46.7425 43.18 46.8318 43.274 46.811 43.3617C46.7941 43.4333 46.714 43.4664 46.657 43.5157C46.5921 43.5845 46.5467 43.6692 46.5254 43.7613C46.4097 43.7831 46.2907 43.7796 46.1766 43.751C46.0624 43.7224 45.9558 43.6695 45.864 43.5958C45.9603 43.8337 45.9626 44.0962 45.9664 44.3526C45.9775 44.4346 45.9556 44.5177 45.9056 44.5836C46.1812 44.5897 46.4491 44.6606 46.7178 44.7245C46.8328 44.763 46.9571 44.763 47.072 44.7245C47.1334 44.6914 47.1884 44.6476 47.2345 44.5951C47.3807 44.4465 47.5339 44.2872 47.5694 44.0801C47.5787 43.9635 47.5808 43.8465 47.5755 43.7298C47.5897 43.5856 47.6193 43.4433 47.6641 43.3055C47.7414 43.0194 47.7929 42.727 47.818 42.4317C47.8342 42.2492 47.9913 42.103 48.0744 41.9397C48.2284 41.6318 48.3901 41.3123 48.4024 40.9673C48.4132 40.8549 48.3747 40.7171 48.2607 40.7025Z" fill="#2F2E41"/>
<path opacity="0.1" d="M48.2607 40.7025C48.1679 40.6813 48.0705 40.6953 47.9874 40.7418C47.9475 40.7771 47.9157 40.8207 47.8943 40.8696C47.8165 41.0025 47.756 41.1448 47.7141 41.293C47.6833 41.42 47.6779 41.5525 47.6371 41.678C47.5663 41.9089 47.3846 42.1053 47.3638 42.3462C47.3546 42.454 47.3723 42.5811 47.2937 42.6542C47.2742 42.6706 47.2534 42.6852 47.2314 42.6981C47.1767 42.7348 47.1303 42.7825 47.0951 42.8382C47.0716 42.8882 47.0389 42.9334 46.9989 42.9714C46.928 43.0238 46.8118 43.0184 46.7771 43.0992C46.7425 43.18 46.8318 43.274 46.811 43.3617C46.7941 43.4333 46.714 43.4664 46.657 43.5157C46.5921 43.5845 46.5467 43.6692 46.5254 43.7613C46.4097 43.7831 46.2907 43.7796 46.1766 43.751C46.0624 43.7224 45.9558 43.6695 45.864 43.5958C45.9603 43.8337 45.9626 44.0962 45.9664 44.3526C45.9775 44.4346 45.9556 44.5177 45.9056 44.5836C46.1812 44.5897 46.4491 44.6606 46.7178 44.7245C46.8328 44.763 46.9571 44.763 47.072 44.7245C47.1334 44.6914 47.1884 44.6476 47.2345 44.5951C47.3807 44.4465 47.5339 44.2872 47.5694 44.0801C47.5787 43.9635 47.5808 43.8465 47.5755 43.7298C47.5897 43.5856 47.6193 43.4433 47.6641 43.3055C47.7414 43.0194 47.7929 42.727 47.818 42.4317C47.8342 42.2492 47.9913 42.103 48.0744 41.9397C48.2284 41.6318 48.3901 41.3123 48.4024 40.9673C48.4132 40.8549 48.3747 40.7171 48.2607 40.7025Z" fill="black"/>
<path d="M47.9373 46.2427C47.6409 46.1018 47.4246 45.8392 47.1851 45.6144C46.7278 45.1848 46.1688 44.8815 45.6884 44.4788C45.3704 44.2124 45.0856 43.9022 44.7353 43.6789C44.4272 43.4823 44.0778 43.3598 43.7144 43.3209C43.6729 43.3136 43.6302 43.3157 43.5896 43.327C43.5438 43.3476 43.5038 43.3794 43.4734 43.4194C43.3182 43.5943 43.1802 43.7838 43.0615 43.9853C42.4525 45.0185 41.5879 45.8877 40.8711 46.8494C40.8481 46.872 40.8345 46.9025 40.8329 46.9347C40.8313 46.9669 40.842 46.9986 40.8626 47.0234L41.0082 47.309C41.0898 47.4684 41.2206 47.6547 41.3931 47.6231C41.4722 47.6003 41.5431 47.5551 41.5971 47.493L42.2515 46.8671L42.9375 46.2111C43.3394 45.8262 43.7483 45.4335 44.0108 44.9423C44.2156 45.2972 44.579 45.5297 44.8284 45.8554C44.9231 45.9786 45.0001 46.1149 45.0848 46.2458C45.2211 46.4559 45.3751 46.653 45.529 46.8494L46.3167 47.8541C46.416 47.9972 46.5392 48.1222 46.6808 48.2236C46.8671 48.3414 47.0943 48.373 47.3137 48.3923C47.6093 48.4192 47.9062 48.43 48.2029 48.4246C48.4293 48.4207 48.6649 48.4061 48.8651 48.3053C49.0652 48.2044 49.2354 47.9973 49.2246 47.7717C49.2124 47.6535 49.1737 47.5396 49.1114 47.4383C48.8335 46.9225 48.4655 46.4914 47.9373 46.2427Z" fill="#2F2E41"/>
<path d="M48.6872 41.4208C48.8339 41.4208 48.9529 41.3012 48.9529 41.1536C48.9529 41.0061 48.8339 40.8865 48.6872 40.8865C48.5406 40.8865 48.4216 41.0061 48.4216 41.1536C48.4216 41.3012 48.5406 41.4208 48.6872 41.4208Z" fill="#E8E8F0"/>
<path d="M48.6286 40.9526C48.6886 41.0721 48.6991 41.2104 48.6578 41.3376C48.6168 41.4627 48.5593 41.5818 48.4869 41.6917C48.4246 41.8053 48.35 41.9117 48.2644 42.0089C48.6748 42.0289 49.0728 41.868 49.4347 41.6725C49.7265 41.5185 50.0175 41.3222 50.173 41.0288C50.1267 41.0399 50.0786 41.0411 50.0318 41.0325C49.985 41.0239 49.9405 41.0056 49.9012 40.9788C49.8229 40.9242 49.7527 40.8589 49.6926 40.7848L49.487 40.5538C49.4385 40.5031 49.3958 40.4471 49.36 40.3867C49.315 40.3048 49.2959 40.2111 49.3053 40.118C49.2235 40.2037 49.132 40.2797 49.0328 40.3444C48.8857 40.4406 48.7248 40.5099 48.5762 40.6046C48.5239 40.6385 48.4076 40.6932 48.4376 40.7586C48.4677 40.824 48.587 40.8787 48.6286 40.9526Z" fill="#FBBEBE"/>
<path opacity="0.1" d="M48.6286 40.9526C48.6886 41.0721 48.6991 41.2104 48.6578 41.3376C48.6168 41.4627 48.5593 41.5818 48.4869 41.6917C48.4246 41.8053 48.35 41.9117 48.2644 42.0089C48.6748 42.0289 49.0728 41.868 49.4347 41.6725C49.7265 41.5185 50.0175 41.3222 50.173 41.0288C50.1267 41.0399 50.0786 41.0411 50.0318 41.0325C49.985 41.0239 49.9405 41.0056 49.9012 40.9788C49.8229 40.9242 49.7527 40.8589 49.6926 40.7848L49.487 40.5538C49.4385 40.5031 49.3958 40.4471 49.36 40.3867C49.315 40.3048 49.2959 40.2111 49.3053 40.118C49.2235 40.2037 49.132 40.2797 49.0328 40.3444C48.8857 40.4406 48.7248 40.5099 48.5762 40.6046C48.5239 40.6385 48.4076 40.6932 48.4376 40.7586C48.4677 40.824 48.587 40.8787 48.6286 40.9526Z" fill="black"/>
<path d="M48.634 40.9928C48.5925 41.0514 48.5703 41.1215 48.5703 41.1933C48.5703 41.2652 48.5925 41.3352 48.634 41.3939C48.6456 41.4085 48.6895 41.5001 48.711 41.5009C48.7292 41.4993 48.746 41.4908 48.758 41.477C48.851 41.3798 48.9379 41.277 49.0182 41.1691C49.0994 41.0597 49.2167 40.9828 49.3493 40.9519C49.5102 40.9265 49.665 41.012 49.8059 41.0936C49.8664 41.1237 49.9191 41.1674 49.9598 41.2214C49.9895 41.275 50.0071 41.3343 50.0114 41.3954C50.0519 41.7625 50.0673 42.1318 50.0576 42.501C50.0651 42.7671 50.0476 43.0334 50.0053 43.2963C49.9791 43.4318 49.9398 43.5642 49.9213 43.7013C49.9079 43.8219 49.9025 43.9433 49.9052 44.0646V44.5728C49.9018 44.6659 49.9085 44.7591 49.9252 44.8507C49.957 44.9601 49.9942 45.0677 50.0368 45.1733C50.0743 45.299 50.1001 45.4278 50.1138 45.5583L50.1831 46.0841C50.2054 46.2504 50.2216 46.4313 50.1208 46.5645C50.0761 46.6253 50.016 46.6731 49.9668 46.7331C49.7935 46.9533 49.8513 47.2728 49.7743 47.5461C49.7173 47.7467 49.6008 47.9252 49.4401 48.0581C49.3177 48.1621 49.1591 48.2444 49.0005 48.2121C48.7873 48.1721 48.6587 47.9496 48.6002 47.7394C48.5417 47.5292 48.5232 47.2998 48.3946 47.1235C48.2914 46.978 48.1321 46.8871 47.9881 46.7832C47.8441 46.6792 47.7024 46.546 47.6709 46.3705C47.657 46.2935 47.6655 46.2165 47.6578 46.1395C47.6464 46.0414 47.6087 45.9482 47.5488 45.8696C47.489 45.7911 47.4091 45.73 47.3175 45.693C47.2082 45.6506 47.0727 45.6352 47.0095 45.539C47.1663 45.4406 47.2805 45.287 47.3298 45.1086C47.3776 44.9329 47.4034 44.7518 47.4068 44.5697L47.4438 43.9584C47.4599 43.6851 47.4676 43.4141 47.5877 43.1685C47.6416 43.0592 47.7086 42.956 47.764 42.8474C47.8383 42.6951 47.9016 42.5376 47.9534 42.3763C48.0404 42.126 48.1282 41.8751 48.206 41.6218C48.2371 41.4991 48.2837 41.3809 48.3446 41.2699C48.4162 41.1544 48.5109 41.0158 48.634 40.9928Z" fill="#E8E8F0"/>
<path d="M47.2767 44.9647L47.4384 44.9701L47.473 44.7261C47.4776 44.6772 47.489 44.6293 47.5069 44.5836C47.5337 44.5355 47.5649 44.4898 47.6001 44.4474C47.7594 44.2225 47.7479 43.9238 47.7872 43.6505C47.8395 43.2863 47.992 42.9445 48.1429 42.6088L48.457 41.909C48.485 41.8515 48.5074 41.7914 48.524 41.7296C48.5377 41.6614 48.5442 41.592 48.5433 41.5225C48.5433 41.4147 48.5787 41.0213 48.581 40.9127C48.581 40.8727 48.4932 40.895 48.4747 40.8596C48.4355 40.7826 48.3816 40.992 48.3077 41.0382C48.238 41.0915 48.1872 41.1657 48.1629 41.2499C48.0951 41.4263 48.0536 41.6118 47.9904 41.7889C47.935 41.9702 47.834 42.1343 47.6971 42.2654C47.6332 42.3224 47.5585 42.3671 47.4977 42.4271C47.3021 42.6204 47.2836 42.9253 47.2767 43.197C47.2721 43.3656 47.2405 44.9647 47.2767 44.9647Z" fill="#2F2E41"/>
<path d="M49.6056 40.701C49.4516 40.7626 49.3623 40.9319 49.3184 41.0967C49.2745 41.2615 49.256 41.4354 49.1713 41.5817C48.9742 41.9251 48.4715 42.0252 48.3322 42.3963C48.2967 42.5216 48.2778 42.651 48.276 42.7812C48.2513 43.0469 48.1636 43.304 48.1374 43.5696C48.1238 43.7762 48.1287 43.9837 48.152 44.1894L48.3283 46.2858C48.3625 46.5946 48.3446 46.9069 48.2752 47.2097C48.456 47.2358 48.6404 47.2054 48.8033 47.1227C48.9689 47.0457 49.1198 46.9441 49.2784 46.8563C49.5517 46.7024 49.8535 46.5984 50.0921 46.3944C50.1354 46.3607 50.1727 46.3198 50.2022 46.2735C50.2405 46.1854 50.2664 46.0924 50.2792 45.9971C50.2995 45.923 50.3252 45.8504 50.3562 45.78C50.4446 45.5687 50.5217 45.3528 50.5872 45.1333C50.632 44.9877 50.6672 44.8393 50.6926 44.6891C50.7119 44.5697 50.7219 44.4489 50.7327 44.3287C50.745 44.1398 50.7825 43.9534 50.8443 43.7744C50.997 43.3474 51.0835 42.8995 51.1007 42.4463C51.106 42.3809 51.1016 42.315 51.0876 42.2508C51.061 42.173 51.0253 42.0985 50.9814 42.029C50.9082 41.8912 50.8643 41.7396 50.795 41.6002C50.6411 41.2845 50.3647 41.0451 50.076 40.8442C49.9281 40.7464 49.7657 40.6401 49.6056 40.701Z" fill="#2F2E41"/>
<path d="M45.9302 44.1215C45.8052 44.0562 45.692 43.9703 45.5953 43.8675C45.5514 43.8159 45.5183 43.7581 45.4706 43.7073C45.3575 43.5868 45.2108 43.5031 45.0494 43.4671C44.8892 43.4318 44.7253 43.416 44.5613 43.4201C44.4518 43.4126 44.3418 43.4259 44.2372 43.4594C44.1847 43.4766 44.1374 43.5068 44.0997 43.5472C44.062 43.5875 44.0351 43.6368 44.0216 43.6904C43.9977 43.8213 44.0832 43.9483 44.1856 44.0315C44.2808 44.1093 44.3929 44.1638 44.5128 44.1908C44.6107 44.2078 44.7094 44.2193 44.8085 44.2255C45.3905 44.2863 45.9102 44.6027 46.4199 44.8915C46.868 45.1445 47.3248 45.3814 47.7903 45.6021C47.8088 45.4628 47.8165 45.3222 47.8134 45.1817C47.8134 45.077 47.8057 44.9169 47.7064 44.8553C47.5909 44.7829 47.3984 44.7667 47.2706 44.7236C46.9706 44.6257 46.6776 44.5074 46.3937 44.3695C46.2328 44.2917 46.0788 44.2093 45.9302 44.1215Z" fill="#FBBEBE"/>
<path d="M48.4748 40.8334C49.0476 40.8334 49.5119 40.3663 49.5119 39.7902C49.5119 39.214 49.0476 38.7469 48.4748 38.7469C47.9021 38.7469 47.4377 39.214 47.4377 39.7902C47.4377 40.3663 47.9021 40.8334 48.4748 40.8334Z" fill="#FBBEBE"/>
<path d="M49.9021 41.8836C49.8196 41.9996 49.7521 42.1256 49.7012 42.2585C49.5726 42.5226 49.3717 42.749 49.2716 43.0284C49.1653 43.3187 49.1692 43.6644 48.9636 43.893C48.9223 43.9277 48.8912 43.9729 48.8736 44.0239C48.8723 44.0557 48.8687 44.0874 48.8628 44.1186C48.8335 44.2018 48.6973 44.2056 48.6718 44.2903C48.6649 44.3149 48.6719 44.3419 48.6595 44.3673C48.6387 44.422 48.5671 44.4297 48.5186 44.4628C48.4178 44.5313 48.4417 44.6899 48.3647 44.7884C48.3334 44.825 48.293 44.8527 48.2475 44.8687C48.2021 44.8846 48.1533 44.8883 48.106 44.8793C48.0116 44.8594 47.9208 44.8254 47.8365 44.7784C47.8069 44.7618 47.7741 44.7515 47.7403 44.7484C47.7001 44.7493 47.6611 44.7624 47.6286 44.7861C47.4369 44.9078 47.3469 45.1495 47.3484 45.3774C47.3619 45.6053 47.4159 45.829 47.5078 46.038C47.5186 46.0741 47.5367 46.1076 47.5609 46.1366C47.624 46.2035 47.7349 46.1928 47.8196 46.155C47.8989 46.108 47.9834 46.0703 48.0713 46.0426C48.2315 46.0134 48.3885 46.1242 48.551 46.115C48.6698 46.0969 48.7817 46.0475 48.8751 45.9718C49.04 45.8716 49.1877 45.7456 49.3124 45.5984C49.3832 45.5052 49.4356 45.399 49.4979 45.2997C49.5776 45.1776 49.665 45.0609 49.7597 44.9501L50.3579 44.2179C50.4179 44.1486 50.4718 44.0742 50.5188 43.9954C50.5728 43.889 50.6148 43.7769 50.6443 43.6613C50.7084 43.4684 50.75 43.2687 50.7683 43.0662C50.7713 42.8985 50.7566 42.731 50.7244 42.5665C50.7043 42.4028 50.661 42.2429 50.5958 42.0915C50.4626 41.822 50.1462 41.5987 49.9021 41.8836Z" fill="#2F2E41"/>
<path d="M51.9854 40.5248C51.9862 40.3399 51.9431 40.1573 51.8596 39.9923C51.776 39.8273 51.6545 39.6844 51.505 39.5755C51.5005 39.2472 51.3795 38.9311 51.1636 38.6836C50.9477 38.4362 50.651 38.2734 50.3263 38.2243C50.2635 37.9133 50.093 37.6344 49.8447 37.4368C49.5965 37.2392 49.2864 37.1355 48.9692 37.144C48.652 37.1526 48.348 37.2728 48.1108 37.4836C47.8736 37.6943 47.7183 37.982 47.6724 38.2959C47.2413 38.1989 46.8471 38.3252 46.7755 38.5908C46.6985 38.8688 47.0064 39.1937 47.4622 39.3168C47.605 39.3572 47.7539 39.3721 47.9018 39.3607C48.0078 39.5164 48.1452 39.6481 48.3051 39.7476C48.465 39.847 48.6439 39.9119 48.8303 39.9382C48.8851 40.1893 49.0089 40.4202 49.1878 40.6047C49.3666 40.7893 49.5935 40.9203 49.8428 40.9829C49.9117 41.1496 50.0188 41.2978 50.1553 41.4156C50.1553 41.448 50.15 41.4811 50.15 41.5149C50.145 41.6333 50.164 41.7514 50.2059 41.8622C50.2478 41.973 50.3116 42.0742 50.3936 42.1597C50.4756 42.2452 50.574 42.3133 50.683 42.3597C50.792 42.4062 50.9092 42.4302 51.0276 42.4302C51.1461 42.4302 51.2633 42.4062 51.3723 42.3597C51.4813 42.3133 51.5797 42.2452 51.6617 42.1597C51.7437 42.0742 51.8075 41.973 51.8494 41.8622C51.8913 41.7514 51.9103 41.6333 51.9053 41.5149C51.9054 41.3821 51.8767 41.2508 51.8214 41.13C51.9296 40.9467 51.9863 40.7376 51.9854 40.5248V40.5248Z" fill="#F86D70"/>
<path opacity="0.1" d="M47.0682 38.6438C47.1398 38.3782 47.5301 38.2519 47.9651 38.3489C48.0157 38.0301 48.1773 37.7393 48.4215 37.528C48.6656 37.3167 48.9765 37.1984 49.2993 37.1941C49.3294 37.1941 49.3594 37.1941 49.3886 37.1941C49.2639 37.156 49.1341 37.1368 49.0037 37.1371C48.6809 37.1414 48.3699 37.2597 48.1258 37.471C47.8817 37.6823 47.7201 37.9731 47.6695 38.292C47.2383 38.195 46.8441 38.3212 46.7725 38.5868C46.6955 38.8648 47.0035 39.1897 47.4593 39.3129C47.5441 39.3364 47.631 39.3513 47.7187 39.3575C47.2861 39.2313 46.995 38.9156 47.0682 38.6438Z" fill="black"/>
<path opacity="0.1" d="M50.4424 41.5688C50.4424 41.5349 50.4424 41.5018 50.4477 41.4687C50.3112 41.3512 50.2041 41.2032 50.1352 41.0368C49.8861 40.9735 49.6594 40.8422 49.4807 40.6576C49.3019 40.4729 49.1779 40.2422 49.1227 39.9912C48.9362 39.9651 48.7573 39.9003 48.5974 39.8008C48.4374 39.7014 48.3001 39.5695 48.1942 39.4138C48.108 39.4206 48.0213 39.4183 47.9355 39.4069C48.042 39.5503 48.1759 39.6712 48.3295 39.7624C48.4831 39.8536 48.6533 39.9133 48.8302 39.9381C48.8849 40.1892 49.0087 40.4201 49.1876 40.6047C49.3665 40.7893 49.5933 40.9202 49.8426 40.9829C49.9116 41.1495 50.0186 41.2977 50.1552 41.4155C50.1552 41.4479 50.1498 41.481 50.1498 41.5149C50.1459 41.7509 50.2355 41.9789 50.399 42.1491C50.5626 42.3193 50.7869 42.4179 51.0229 42.4233C50.8506 42.3569 50.7028 42.2395 50.599 42.0868C50.4953 41.9341 50.4406 41.7534 50.4424 41.5688Z" fill="black"/>
<path d="M48.949 40.1724C49.0194 40.1189 49.0187 39.9995 48.9475 39.9057C48.8763 39.8119 48.7614 39.7792 48.691 39.8327C48.6206 39.8862 48.6212 40.0056 48.6925 40.0994C48.7637 40.1932 48.8785 40.2259 48.949 40.1724Z" fill="#FBBEBE"/>
<path d="M24.1596 45.3635L25.1852 44.7607C25.0466 44.5238 24.8694 44.3117 24.6609 44.1332L22.7268 44.7345L24.242 43.8437C23.8668 43.6382 23.4446 43.534 23.0169 43.5412C22.5892 43.5485 22.1707 43.667 21.8027 43.8851C21.4347 44.1031 21.1298 44.4133 20.918 44.785C20.7063 45.1566 20.5949 45.5771 20.595 46.0048C20.595 47.3653 21.6982 47.4122 23.0587 47.4122C24.4191 47.4122 25.5224 47.3653 25.5224 46.0048C25.5232 45.66 25.451 45.3189 25.3107 45.0039L24.1596 45.3635Z" fill="#6C63FF"/>
<path opacity="0.1" d="M24.4206 46.6861C24.3114 46.5767 24.1894 46.4808 24.0572 46.4005C23.8717 46.2765 23.6784 46.1503 23.459 46.1087C23.2665 46.0717 23.0679 46.1033 22.8716 46.0918C22.5307 46.0709 22.2098 45.9238 21.9716 45.6791C21.8314 45.5343 21.7213 45.3565 21.5527 45.2456C21.3643 45.1336 21.1419 45.0929 20.926 45.1309C20.8635 45.1396 20.8015 45.1522 20.7405 45.1686C20.644 45.4368 20.5947 45.7197 20.595 46.0048C20.595 47.3652 21.6982 47.4121 23.0587 47.4121C23.7192 47.4121 24.3182 47.4014 24.7609 47.2343L24.6839 47.0965C24.614 46.949 24.5255 46.8111 24.4206 46.6861Z" fill="black"/>
</g>
<defs>
<linearGradient id="paint0_linear" x1="43.6921" y1="49.2461" x2="43.6921" y2="36.9554" gradientUnits="userSpaceOnUse">
<stop stop-color="#808080" stop-opacity="0.25"/>
<stop offset="0.54" stop-color="#808080" stop-opacity="0.12"/>
<stop offset="1" stop-color="#808080" stop-opacity="0.1"/>
</linearGradient>
<clipPath id="clip0">
<rect width="88" height="51.1008" fill="white"/>
</clipPath>
</defs>
</svg>
