<svg width="88" height="60" viewBox="0 0 88 60" fill="none" xmlns="http://www.w3.org/2000/svg">
<g clip-path="url(#clip0)">
<path d="M56.9005 13.4509C58.5668 13.4509 59.9177 12.1 59.9177 10.4337C59.9177 8.76734 58.5668 7.4165 56.9005 7.4165C55.2341 7.4165 53.8833 8.76734 53.8833 10.4337C53.8833 12.1 55.2341 13.4509 56.9005 13.4509Z" fill="#F2F2F2"/>
<path d="M68.5127 31.5911L16.8779 0L-0.000186492 27.5868L51.6346 59.1779L68.5127 31.5911Z" fill="#F2F2F2"/>
<path d="M63.9247 40.3416C63.4533 39.2573 62.7272 38.305 61.2752 37.5035C60.5248 37.0792 59.7187 36.7619 58.8803 36.5607C59.4444 36.2986 59.9631 35.9485 60.4172 35.5235C61.0847 34.9268 61.5907 34.1711 61.8881 33.3266C62.1619 32.4684 62.2738 31.5668 62.2181 30.6677C62.1144 29.0837 61.8032 27.5468 60.9735 26.4437C60.1438 25.3405 58.9746 24.4919 57.4283 23.8979C56.2403 23.4453 55.024 23.1625 53.1383 23.0588V17.0338L49.3668 19.391V23.0682H46.3496V19.2024L42.4839 17.0338V23.0682H34.2715L36.9115 27.594C37.7271 27.5949 38.2796 27.6703 38.5615 27.8108C38.8247 27.9234 39.0411 28.1232 39.1744 28.3765C39.297 28.6123 39.3535 29.1685 39.3535 30.0266V46.3571C39.3535 47.2057 39.297 47.7525 39.1744 47.9977C39.0518 48.2428 38.9858 48.4597 38.6935 48.5917C38.4012 48.7237 38.3918 48.7142 37.581 48.7142H37.5715L34.2715 53.24H42.4744V59.2744H46.3402V53.24H49.3574V59.2744H53.1289V53.2023C55.5803 53.0797 57.3246 52.7592 58.7295 52.2312C60.5492 51.5523 61.9447 50.5623 62.9441 49.2611C63.9436 47.96 64.349 45.9705 64.4338 44.4336C64.4998 43.0665 64.349 41.3033 63.9247 40.3416ZM46.3402 28.1597H46.3411V28.0343H48.9774C50.4605 28.0343 55.4031 27.5402 55.4851 31.5766C55.5681 35.6131 48.9774 35.4481 48.9774 35.4481H46.3411V35.1369H46.3402V28.1597ZM46.3402 39.6627H49.3574C49.9702 39.6627 52.0785 39.756 52.846 39.7909C53.1589 39.8023 53.4687 39.8575 53.7662 39.955C53.8747 39.9918 53.9774 40.0332 54.0887 40.0794C54.5537 40.2297 54.9924 40.4518 55.3889 40.7376C55.6474 40.9083 55.8747 41.1219 56.0612 41.3693C56.1419 41.4809 56.2162 41.5971 56.2837 41.7172C56.4622 42.0193 56.5947 42.3463 56.6769 42.6874C56.7667 43.0169 56.8133 43.3567 56.8155 43.6982C56.8155 44.4327 56.6797 45.0408 56.345 45.5556C55.8915 46.3156 55.1475 46.854 54.3103 47.2339C52.1454 48.2183 49.3574 48.1485 49.3574 48.1485H46.3402V39.6627Z" fill="#3F3D56"/>
<path opacity="0.3" d="M57.717 10.5606C57.6884 10.49 57.6358 10.4316 57.5685 10.3959C57.5266 10.3714 57.4814 10.3529 57.4342 10.3412C57.466 10.3259 57.4951 10.3056 57.5204 10.281C57.558 10.246 57.5864 10.2022 57.6029 10.1535C57.6182 10.1036 57.6245 10.0513 57.6214 9.9992C57.6211 9.91262 57.5969 9.8278 57.5516 9.75406C57.501 9.68667 57.432 9.63536 57.3528 9.60631C57.276 9.57651 57.1947 9.56004 57.1123 9.55761V9.20795L56.9009 9.34475V9.55816H56.7318V9.3338L56.5151 9.20795V9.55816H56.0547L56.2027 9.82081C56.2341 9.81866 56.2655 9.82294 56.2952 9.8334C56.3101 9.84007 56.3222 9.85166 56.3295 9.86623C56.3386 9.8973 56.342 9.92973 56.3396 9.96199V10.9097C56.3419 10.9418 56.3385 10.9741 56.3295 11.0049C56.3227 11.0192 56.319 11.0318 56.3026 11.0394C56.2862 11.0471 56.2857 11.0465 56.2402 11.0465H56.2397L56.0547 11.3092H56.5145V11.6594H56.7312V11.3092H56.9004V11.6594H57.1118V11.307C57.2188 11.3051 57.3248 11.2861 57.4258 11.2506C57.5195 11.2172 57.6015 11.1573 57.662 11.0783C57.7148 10.9942 57.7437 10.8973 57.7456 10.7981C57.7511 10.7179 57.7414 10.6373 57.717 10.5606V10.5606ZM56.7313 9.85365H56.7313V9.84637H56.8791C56.9622 9.84637 57.2393 9.8177 57.2439 10.052C57.2486 10.2862 56.8791 10.2766 56.8791 10.2766H56.7313V10.2586H56.7313V9.85365ZM56.7313 10.5212H56.9004C56.9347 10.5212 57.0529 10.5266 57.096 10.5287C57.1135 10.5293 57.1309 10.5325 57.1475 10.5382C57.1536 10.5403 57.1594 10.5427 57.1656 10.5454C57.1918 10.5542 57.2164 10.5671 57.2385 10.5836C57.2531 10.5936 57.2658 10.606 57.2762 10.6203C57.2922 10.6435 57.3039 10.6694 57.3107 10.6968C57.3158 10.7159 57.3184 10.7356 57.3185 10.7554C57.3202 10.7932 57.3111 10.8306 57.2921 10.8632C57.265 10.9066 57.2252 10.9406 57.178 10.9606C57.09 10.9967 56.9956 11.0147 56.9004 11.0137H56.7313V10.5212Z" fill="#6C63FF"/>
<path d="M75.2534 44.861C75.8642 44.861 76.3593 44.3659 76.3593 43.7551C76.3593 43.1443 75.8642 42.6492 75.2534 42.6492C74.6426 42.6492 74.1475 43.1443 74.1475 43.7551C74.1475 44.3659 74.6426 44.861 75.2534 44.861Z" fill="#FF6584"/>
<path d="M83.9714 55.7937V43.2017" stroke="#3F3D56" stroke-width="2" stroke-miterlimit="10"/>
<path d="M83.9716 44.9825C84.955 44.9825 85.7523 44.1852 85.7523 43.2018C85.7523 42.2183 84.955 41.4211 83.9716 41.4211C82.9882 41.4211 82.1909 42.2183 82.1909 43.2018C82.1909 44.1852 82.9882 44.9825 83.9716 44.9825Z" fill="#3F3D56"/>
<path d="M80.4645 50.2521C77.8923 54.1965 78.5971 59.2134 78.5971 59.2134C78.5971 59.2134 83.4721 57.835 86.0442 53.8905C88.6164 49.9461 87.9116 44.9293 87.9116 44.9293C87.9116 44.9293 83.0366 46.3076 80.4645 50.2521Z" fill="#3F3D56"/>
<path d="M78.5836 59.1675C78.5836 59.1675 78.521 59.1575 78.4057 59.1342C78.3138 59.1155 78.1872 59.0889 78.0327 59.0522C76.6512 58.7265 72.9782 57.6254 70.5768 54.7304C67.5712 51.1054 67.6978 46.0409 67.6978 46.0409C67.6978 46.0409 72.2934 46.7876 75.3216 50.0429C75.4528 50.1828 75.5805 50.3278 75.7046 50.4779C78.3198 53.632 78.5636 57.8759 78.5829 58.925C78.5856 59.0822 78.5836 59.1675 78.5836 59.1675Z" fill="#6C63FF"/>
<path d="M76.73 50.2521C79.3021 54.1965 78.5974 59.2134 78.5974 59.2134C78.5974 59.2134 73.7224 57.835 71.1503 53.8905C68.5781 49.9461 69.2829 44.9293 69.2829 44.9293C69.2829 44.9293 74.1579 46.3076 76.73 50.2521Z" stroke="#3F3D56" stroke-width="2" stroke-miterlimit="10"/>
<path opacity="0.1" d="M78.5828 58.925C78.5149 59.007 78.4549 59.0769 78.4056 59.1342C78.2964 59.2588 78.2344 59.324 78.2344 59.324C78.2344 59.324 78.1592 59.2295 78.0326 59.0523C77.3379 58.0837 75.1031 54.6399 75.2756 50.6618C75.2849 50.4533 75.3002 50.247 75.3215 50.043C75.4528 50.1829 75.5804 50.3278 75.7046 50.4779C78.3197 53.632 78.5635 57.8759 78.5828 58.925Z" fill="black"/>
<path d="M82.3968 50.9495C82.1935 55.6541 78.7012 59.3241 78.7012 59.3241C78.7012 59.3241 75.5385 55.3665 75.7418 50.6619C75.9451 45.9573 79.4374 42.2873 79.4374 42.2873C79.4374 42.2873 82.6002 46.2449 82.3968 50.9495Z" fill="#6C63FF"/>
<path d="M78.7009 59.1908L79.4687 42.4791" stroke="#3F3D56" stroke-width="2" stroke-miterlimit="10"/>
<path d="M5.41895 59.2092H85.1876" stroke="#3F3D56" stroke-width="2" stroke-miterlimit="10"/>
<path d="M22.3606 38.8287C24.5857 38.8287 26.3895 37.0249 26.3895 34.7999C26.3895 32.5748 24.5857 30.771 22.3606 30.771C20.1356 30.771 18.3318 32.5748 18.3318 34.7999C18.3318 37.0249 20.1356 38.8287 22.3606 38.8287Z" fill="#6C63FF"/>
<path d="M15.5127 48.3106C17.7378 48.3106 19.5416 46.5068 19.5416 44.2817C19.5416 42.0566 17.7378 40.2529 15.5127 40.2529C13.2877 40.2529 11.4839 42.0566 11.4839 44.2817C11.4839 46.5068 13.2877 48.3106 15.5127 48.3106Z" fill="#6C63FF"/>
<path d="M7.08428 55.8829C9.30936 55.8829 11.1131 54.0791 11.1131 51.8541C11.1131 49.629 9.30936 47.8252 7.08428 47.8252C4.8592 47.8252 3.05542 49.629 3.05542 51.8541C3.05542 54.0791 4.8592 55.8829 7.08428 55.8829Z" fill="#6C63FF"/>
<path d="M7.08081 59.1401V51.8319" stroke="#3F3D56" stroke-width="2" stroke-miterlimit="10"/>
<path d="M7.0806 52.8654C7.65138 52.8654 8.11408 52.4027 8.11408 51.8319C8.11408 51.2611 7.65138 50.7984 7.0806 50.7984C6.50982 50.7984 6.04712 51.2611 6.04712 51.8319C6.04712 52.4027 6.50982 52.8654 7.0806 52.8654Z" fill="#3F3D56"/>
<path d="M7.08076 56.3361C7.08076 56.3361 6.93312 53.1606 3.90649 53.5297Z" fill="#3F3D56"/>
<path d="M22.3633 59.1913V34.8146" stroke="#3F3D56" stroke-width="2" stroke-miterlimit="10"/>
<path d="M22.3631 35.8365C22.9338 35.8365 23.3966 35.3738 23.3966 34.8031C23.3966 34.2323 22.9338 33.7696 22.3631 33.7696C21.7923 33.7696 21.3296 34.2323 21.3296 34.8031C21.3296 35.3738 21.7923 35.8365 22.3631 35.8365Z" fill="#3F3D56"/>
<path d="M19.189 53.4733C19.7598 53.4733 20.2225 53.0106 20.2225 52.4398C20.2225 51.869 19.7598 51.4063 19.189 51.4063C18.6182 51.4063 18.1555 51.869 18.1555 52.4398C18.1555 53.0106 18.6182 53.4733 19.189 53.4733Z" fill="#3F3D56"/>
<path d="M22.3632 40.0822C22.3632 40.0822 22.2156 36.9067 19.189 37.2758Z" fill="#3F3D56"/>
<path d="M22.3632 49.0842C22.3632 49.0842 22.2156 45.9087 19.189 46.2778Z" fill="#3F3D56"/>
<path d="M22.3632 58.9073C22.3632 58.9073 23.0276 52.735 19.189 52.4398" stroke="#3F3D56" stroke-width="2" stroke-miterlimit="10"/>
<path d="M25.5381 53.4733C26.1089 53.4733 26.5716 53.0106 26.5716 52.4398C26.5716 51.869 26.1089 51.4063 25.5381 51.4063C24.9673 51.4063 24.5046 51.869 24.5046 52.4398C24.5046 53.0106 24.9673 53.4733 25.5381 53.4733Z" fill="#3F3D56"/>
<path d="M22.3638 58.9073C22.3638 58.9073 21.6994 52.735 25.538 52.4398" stroke="#3F3D56" stroke-width="2" stroke-miterlimit="10"/>
<path d="M25.6009 43.7788C26.1716 43.7788 26.6343 43.3161 26.6343 42.7453C26.6343 42.1746 26.1716 41.7119 25.6009 41.7119C25.0301 41.7119 24.5674 42.1746 24.5674 42.7453C24.5674 43.3161 25.0301 43.7788 25.6009 43.7788Z" fill="#3F3D56"/>
<path d="M22.4265 48.8835C22.4265 48.8835 21.7621 43.0406 25.6008 42.7453" stroke="#3F3D56" stroke-width="2" stroke-miterlimit="10"/>
<path d="M15.5164 59.157V44.2772" stroke="#3F3D56" stroke-width="2" stroke-miterlimit="10"/>
<path d="M15.5161 45.3107C16.0869 45.3107 16.5496 44.848 16.5496 44.2772C16.5496 43.7064 16.0869 43.2437 15.5161 43.2437C14.9454 43.2437 14.4827 43.7064 14.4827 44.2772C14.4827 44.848 14.9454 45.3107 15.5161 45.3107Z" fill="#3F3D56"/>
<path d="M15.5163 48.4861C15.5163 48.4861 15.3687 45.3107 12.342 45.6798Z" fill="#3F3D56"/>
<path d="M15.5163 58.8729C15.5163 58.8729 16.1807 52.7665 12.342 52.4713" stroke="#3F3D56" stroke-width="2" stroke-miterlimit="10"/>
<path d="M12.3421 53.5047C12.9128 53.5047 13.3755 53.042 13.3755 52.4712C13.3755 51.9005 12.9128 51.4377 12.3421 51.4377C11.7713 51.4377 11.3086 51.9005 11.3086 52.4712C11.3086 53.042 11.7713 53.5047 12.3421 53.5047Z" fill="#3F3D56"/>
<path d="M72.2692 36.5512C73.2065 36.5512 73.9663 35.7913 73.9663 34.854C73.9663 33.9167 73.2065 33.1569 72.2692 33.1569C71.3319 33.1569 70.572 33.9167 70.572 34.854C70.572 35.7913 71.3319 36.5512 72.2692 36.5512Z" fill="#F2F2F2"/>
<path opacity="0.1" d="M54.3104 47.2339C52.1456 48.2182 49.3575 48.1485 49.3575 48.1485H46.3403V47.5724C47.5698 47.2292 49.2698 47.017 51.149 47.017C52.2066 47.0133 53.2632 47.0858 54.3104 47.2339V47.2339Z" fill="black"/>
<path opacity="0.1" d="M57.9377 48.9028C57.9377 49.9447 54.8979 50.7885 51.149 50.7885C47.4002 50.7885 44.3604 49.9447 44.3604 48.9028C44.3604 48.3833 45.1165 47.9128 46.3404 47.5724V48.1485H49.3576C49.3576 48.1485 52.1456 48.2182 54.3104 47.2339C56.4668 47.5488 57.9377 48.1777 57.9377 48.9028Z" fill="black"/>
<path d="M52.0159 37.1613H49.1274V40.0549H52.0159V37.1613Z" fill="#2F2E41"/>
<path d="M50.2017 39.2075C50.2017 39.2075 50.4408 40.0443 50.0224 40.104C49.7628 40.1445 49.5167 40.247 49.3052 40.4029L50.0822 41.419H51.5167L52.4133 40.5224C52.4133 40.5224 51.2179 39.6259 51.457 39.0879C51.696 38.55 50.2017 39.2075 50.2017 39.2075Z" fill="#FFB9B9"/>
<path opacity="0.1" d="M50.2017 39.2075C50.2017 39.2075 50.4408 40.0443 50.0224 40.104C49.7628 40.1445 49.5167 40.247 49.3052 40.4029L50.0822 41.419H51.5167L52.4133 40.5224C52.4133 40.5224 51.2179 39.6259 51.457 39.0879C51.696 38.55 50.2017 39.2075 50.2017 39.2075Z" fill="black"/>
<path d="M50.5603 49.6078L51.9351 50.0859L52.8914 50.1457L52.8316 49.3089L50.8592 48.7255L50.5603 49.6078Z" fill="#FFB9B9"/>
<path d="M52.3237 49.4284C52.3237 49.4284 52.3237 50.2652 52.4433 50.2652C52.5628 50.2652 54.1767 50.0859 54.6548 50.2652C55.133 50.4445 55.8503 49.7871 55.4916 49.4284C55.133 49.0698 54.548 48.5318 54.183 48.6514C53.818 48.7709 52.3237 49.0698 52.3237 49.0698L52.3237 49.4284Z" fill="#2F2E41"/>
<path d="M47.9306 48.6514C47.9306 48.6514 47.2133 50.0859 47.6915 50.2054C48.1696 50.3249 48.7076 50.1456 48.7674 50.0859C48.8271 50.0261 49.6639 49.787 49.7835 49.9065C49.903 50.0261 49.903 49.4284 49.903 49.4284L47.9306 48.6514Z" fill="#2F2E41"/>
<path d="M48.5281 46.679C48.5281 46.679 47.3924 48.233 48.2292 48.6514C49.066 49.0698 53.0707 49.0698 53.3696 48.6514C53.6684 48.233 53.788 46.918 53.3696 46.7985C52.9512 46.679 48.5281 46.679 48.5281 46.679Z" fill="#2F2E41"/>
<path opacity="0.2" d="M48.5281 46.679C48.5281 46.679 47.3924 48.233 48.2292 48.6514C49.066 49.0698 53.0707 49.0698 53.3696 48.6514C53.6684 48.233 53.788 46.918 53.3696 46.7985C52.9512 46.679 48.5281 46.679 48.5281 46.679Z" fill="black"/>
<path d="M50.6799 39.6259C51.4392 39.6259 52.0547 39.0104 52.0547 38.2512C52.0547 37.492 51.4392 36.8765 50.6799 36.8765C49.9207 36.8765 49.3052 37.492 49.3052 38.2512C49.3052 39.0104 49.9207 39.6259 50.6799 39.6259Z" fill="#FFB9B9"/>
<path d="M48.5281 40.4029L49.7235 40.1638C49.7235 40.1638 50.0224 41.1202 50.9787 40.9408C51.9351 40.7615 52.1741 40.1638 52.1741 40.1638C52.1741 40.1638 52.8914 40.4627 52.9512 40.4627C53.0109 40.4627 53.788 40.7615 53.788 40.9408C53.788 41.1202 52.8914 42.9133 52.8914 42.9133L53.0109 46.141L48.5878 46.0214L48.8867 42.8535L48.5281 40.4029Z" fill="#6C63FF"/>
<path d="M47.8704 41.957C47.8704 41.957 47.5118 45.1249 47.7509 45.3639C47.99 45.603 48.9463 46.2605 48.9463 46.2605V45.5433L48.4682 44.6467L48.9463 42.5547L47.8704 41.957Z" fill="#FFB9B9"/>
<path d="M54.0569 41.8673C54.0569 41.8673 53.8477 45.1249 53.8477 45.2444C53.8477 45.3639 53.3097 45.7823 53.1304 45.7823C52.9511 45.7823 52.8315 45.4835 52.8315 45.4835L53.2499 45.0053L52.9511 42.5547L54.0569 41.8673Z" fill="#FFB9B9"/>
<path d="M53.489 46.4398C53.489 46.4398 56.1787 44.9455 56.2384 46.4398C56.2982 47.9341 54.8637 48.5318 54.8637 48.5318C54.8637 48.5318 51.1579 49.643 51.0085 49.2369C50.859 48.8307 50.5602 48.1732 50.7993 48.1134C51.0383 48.0536 51.3372 47.9341 51.4567 48.0536C51.5763 48.1732 53.0706 47.1571 53.0706 47.1571L53.489 46.4398Z" fill="#2F2E41"/>
<path opacity="0.2" d="M54.7444 46.2606C54.7444 46.2606 54.2065 46.4996 54.0271 46.679C53.8478 46.8583 53.0708 47.1571 53.0708 47.1571" stroke="black" stroke-width="2" stroke-miterlimit="10"/>
<path d="M48.8865 40.5225L48.5278 40.403C48.5278 40.403 47.2129 41.7777 47.6313 42.1363C48.0497 42.495 48.2888 42.6145 48.4083 42.734C48.5278 42.8536 49.1256 42.9134 49.1256 42.9134L48.8865 40.5225Z" fill="#6C63FF"/>
<path d="M53.2499 40.8214L53.7878 40.9409C53.7878 40.9409 54.2062 41.8375 54.3258 41.957C54.4453 42.0765 54.1465 42.0168 53.9672 42.2559C53.7878 42.4949 53.6085 42.9133 53.2499 42.9133C52.8913 42.9133 52.4131 42.3156 52.4131 42.3156L53.2499 40.8214Z" fill="#6C63FF"/>
<path d="M48.6476 46.9778C48.6476 46.9778 46.3763 45.3639 45.5993 46.5594C44.8223 47.7548 48.9465 49.3687 49.5442 49.6077C50.1419 49.8468 50.6799 50.0859 50.6799 50.0859C50.6799 50.0859 51.2178 48.7709 51.2178 48.5319C51.2178 48.2928 50.7994 48.2928 50.6799 48.2928C50.5603 48.2928 50.0224 48.1732 49.9028 47.9939C49.7833 47.8146 48.6476 46.9778 48.6476 46.9778Z" fill="#2F2E41"/>
<path opacity="0.2" d="M47.3923 46.5594C47.3923 46.5594 47.9901 47.0376 48.528 47.1571C49.066 47.2766 49.2453 47.5755 49.2453 47.5755" stroke="black" stroke-width="2" stroke-miterlimit="10"/>
<path d="M48.2354 44.312L48.2832 46.8428C48.2847 46.9264 48.3193 47.0059 48.3793 47.0642C48.4393 47.1224 48.5199 47.1545 48.6035 47.1536L53.313 47.1007C53.3933 47.0998 53.4702 47.0684 53.5282 47.013C53.5863 46.9576 53.6211 46.8822 53.6257 46.8021L53.7687 44.3243C53.7712 44.2812 53.7648 44.2381 53.7501 44.1976C53.7353 44.1571 53.7124 44.12 53.6828 44.0886C53.6532 44.0572 53.6175 44.0322 53.5778 44.0152C53.5382 43.9981 53.4955 43.9893 53.4524 43.9893H48.5522C48.5101 43.9893 48.4684 43.9977 48.4295 44.014C48.3907 44.0302 48.3555 44.0541 48.326 44.0842C48.2965 44.1142 48.2733 44.1499 48.2578 44.189C48.2422 44.2281 48.2346 44.2699 48.2354 44.312V44.312Z" fill="#575A89"/>
<path d="M47.6906 40.418C47.8189 40.1349 47.9913 39.8693 48.0734 39.5696C48.1719 39.2104 48.1335 38.8303 48.1218 38.458C48.1031 38.1288 48.1312 37.7986 48.2051 37.4772C48.2803 37.1543 48.4489 36.8607 48.69 36.6331C49.3164 36.0739 50.4627 36.0338 51.2276 36.2665C51.5291 36.3583 51.8503 36.5331 51.9251 36.8393C51.9364 36.8855 51.9414 36.9331 51.954 36.979C52.0167 37.207 52.2499 37.3512 52.334 37.5721C52.4429 37.8579 52.275 38.1687 52.2531 38.4737C52.2275 38.8297 52.4025 39.1661 52.5751 39.4787C52.6776 39.6645 52.7843 39.8624 52.7741 40.0744C52.7656 40.1903 52.7303 40.3027 52.6711 40.4027C52.5612 40.5841 52.407 40.7346 52.223 40.84C52.039 40.9455 51.8313 41.0025 51.6192 41.0057C51.4814 41.0167 51.3436 40.9842 51.2252 40.9127C51.0386 40.7841 50.9839 40.5253 51.0228 40.3021C51.0617 40.0788 51.175 39.8768 51.2638 39.6683C51.2911 39.6044 51.3157 39.5393 51.3383 39.4736C51.6137 39.3199 51.8259 39.0738 51.9374 38.7788C52.049 38.4838 52.0527 38.1589 51.948 37.8615C51.8432 37.564 51.6367 37.3131 51.365 37.1531C51.0932 36.9931 50.7736 36.9343 50.4627 36.987C50.1518 37.0398 49.8695 37.2007 49.6657 37.4413C49.4619 37.682 49.3497 37.987 49.3489 38.3023C49.3481 38.6177 49.4588 38.9232 49.6614 39.1649C49.8639 39.4066 50.1454 39.5689 50.4561 39.6232C50.523 39.9606 50.4926 40.31 50.3683 40.6307C50.2553 40.8916 50.1134 41.139 49.9453 41.3683C49.8765 41.4858 49.7849 41.5884 49.6758 41.6699C49.6039 41.7124 49.5267 41.7454 49.4462 41.7679C49.1086 41.8765 48.7531 41.9639 48.4018 41.915C48.0506 41.8662 47.7027 41.6543 47.583 41.3205C47.4781 41.028 47.5624 40.701 47.6906 40.418Z" fill="#2F2E41"/>
<path d="M50.6133 38.306C51.419 38.306 52.0722 37.9359 52.0722 37.4793C52.0722 37.0227 51.419 36.6525 50.6133 36.6525C49.8075 36.6525 49.1543 37.0227 49.1543 37.4793C49.1543 37.9359 49.8075 38.306 50.6133 38.306Z" fill="#2F2E41"/>
<path opacity="0.3" d="M72.9038 34.9527C72.8816 34.8978 72.8407 34.8524 72.7884 34.8247C72.7558 34.8056 72.7207 34.7913 72.684 34.7822C72.7087 34.7703 72.7313 34.7545 72.751 34.7354C72.7802 34.7082 72.8023 34.6741 72.8151 34.6363C72.827 34.5975 72.8319 34.5569 72.8294 34.5164C72.8292 34.4491 72.8105 34.3832 72.7752 34.3259C72.7359 34.2735 72.6823 34.2337 72.6208 34.2111C72.5611 34.188 72.4979 34.1752 72.4339 34.1733V33.9016L72.2696 34.0079V34.1737H72.1382V33.9993L71.9698 33.9016V34.1737H71.6121L71.7271 34.3778C71.7514 34.3761 71.7759 34.3794 71.7989 34.3876C71.8105 34.3927 71.8199 34.4018 71.8256 34.4131C71.8326 34.4372 71.8353 34.4624 71.8334 34.4875V35.2239C71.8352 35.2489 71.8326 35.2739 71.8256 35.2979C71.8203 35.309 71.8174 35.3188 71.8047 35.3247C71.792 35.3307 71.7915 35.3303 71.7562 35.3303H71.7558L71.6121 35.5344H71.9694V35.8065H72.1378V35.5344H72.2692V35.8065H72.4335V35.5327C72.5166 35.5312 72.599 35.5164 72.6775 35.4889C72.7503 35.4628 72.814 35.4163 72.8611 35.3549C72.902 35.2896 72.9245 35.2143 72.926 35.1372C72.9303 35.0748 72.9228 35.0122 72.9038 34.9527V34.9527ZM72.1378 34.4033H72.1378V34.3976H72.2527C72.3173 34.3976 72.5326 34.3754 72.5361 34.5574C72.5398 34.7394 72.2527 34.732 72.2527 34.732H72.1378V34.718H72.1378V34.4033ZM72.1378 34.9221H72.2692C72.2959 34.9221 72.3877 34.9263 72.4212 34.9278C72.4348 34.9284 72.4483 34.9308 72.4613 34.9352C72.466 34.9369 72.4705 34.9388 72.4753 34.9408C72.4957 34.9477 72.5148 34.9577 72.532 34.9705C72.5433 34.9783 72.5532 34.9879 72.5612 34.999C72.5737 35.0171 72.5828 35.0372 72.5881 35.0585C72.592 35.0733 72.594 35.0887 72.5941 35.104C72.5954 35.1334 72.5883 35.1624 72.5736 35.1878C72.5525 35.2215 72.5216 35.2479 72.485 35.2635C72.4165 35.2915 72.3432 35.3055 72.2692 35.3047H72.1378V34.9221Z" fill="#6C63FF"/>
<path d="M6.07973 42.4912C7.01705 42.4912 7.77689 41.7314 7.77689 40.7941C7.77689 39.8568 7.01705 39.0969 6.07973 39.0969C5.14241 39.0969 4.38257 39.8568 4.38257 40.7941C4.38257 41.7314 5.14241 42.4912 6.07973 42.4912Z" fill="#F2F2F2"/>
<path opacity="0.3" d="M6.71411 40.8927C6.69189 40.8378 6.65102 40.7925 6.5987 40.7647C6.56613 40.7457 6.531 40.7313 6.49437 40.7222C6.51905 40.7103 6.54166 40.6945 6.56132 40.6754C6.59057 40.6483 6.61259 40.6142 6.62539 40.5764C6.63733 40.5376 6.6422 40.497 6.63977 40.4565C6.63956 40.3892 6.6208 40.3233 6.58555 40.266C6.54622 40.2136 6.49259 40.1737 6.43112 40.1512C6.37143 40.128 6.30823 40.1152 6.24423 40.1133V39.8416L6.07994 39.9479V40.1137H5.94851V39.9394L5.78011 39.8416V40.1137H5.42236L5.53737 40.3178C5.56174 40.3162 5.5862 40.3195 5.60925 40.3276C5.62081 40.3328 5.63024 40.3418 5.63594 40.3531C5.64295 40.3773 5.64559 40.4025 5.64375 40.4276V41.164C5.64554 41.1889 5.64289 41.214 5.63594 41.238C5.6306 41.2491 5.62773 41.2588 5.615 41.2648C5.60226 41.2707 5.60185 41.2703 5.56653 41.2703H5.56612L5.42237 41.4744H5.7797V41.7465H5.9481V41.4744H6.07954V41.7465H6.24383V41.4727C6.32697 41.4712 6.40934 41.4564 6.4878 41.4289C6.56063 41.4029 6.62438 41.3564 6.6714 41.295C6.71238 41.2296 6.73481 41.1544 6.73629 41.0773C6.74062 41.0149 6.7331 40.9523 6.71411 40.8927ZM5.9481 40.3434H5.94814V40.3377H6.06298C6.12759 40.3377 6.3429 40.3154 6.34647 40.4975C6.35008 40.6795 6.06298 40.672 6.06298 40.672H5.94814V40.658H5.9481L5.9481 40.3434ZM5.9481 40.8621H6.07954C6.10623 40.8621 6.19807 40.8663 6.23151 40.8679C6.24516 40.8684 6.25866 40.8709 6.27159 40.8753C6.27632 40.877 6.28079 40.8788 6.28564 40.8809C6.30598 40.8877 6.3251 40.8977 6.34228 40.9106C6.3536 40.9183 6.3635 40.928 6.37157 40.9391C6.38402 40.9571 6.3931 40.9773 6.39839 40.9985C6.4023 41.0134 6.40433 41.0287 6.40442 41.0441C6.40578 41.0734 6.39866 41.1025 6.38393 41.1279C6.36284 41.1616 6.3319 41.188 6.29529 41.2036C6.22685 41.2316 6.15349 41.2456 6.07954 41.2448H5.9481L5.9481 40.8621Z" fill="#6C63FF"/>
</g>
<defs>
<clipPath id="clip0">
<rect width="88" height="59.3335" fill="white"/>
</clipPath>
</defs>
</svg>
