<svg width="806" height="105" viewBox="0 0 806 105" fill="none" xmlns="http://www.w3.org/2000/svg">
<path d="M58.4549 2.49599L56.4389 16.608H19.7189V44.4H51.6869V58.512H19.7189V87.744H59.0309V102H0.710875V2.49599H58.4549ZM141.006 2.49599L138.99 17.616H113.07V102H93.9183V17.616H67.1343V2.49599H141.006ZM207.862 102V57.504H172.438V102H153.43V2.49599H172.438V42.384H207.862V2.49599H227.014V102H207.862ZM288.196 0.335996C294.244 0.335996 299.524 1.2 304.036 2.928C308.548 4.656 312.964 7.296 317.284 10.848L307.636 22.08C301.78 17.376 295.636 15.024 289.204 15.024C281.812 15.024 275.86 18 271.348 23.952C266.932 29.904 264.724 39.264 264.724 52.032C264.724 64.512 266.932 73.776 271.348 79.824C275.764 85.872 281.716 88.896 289.204 88.896C293.14 88.896 296.644 88.224 299.716 86.88C302.788 85.44 306.052 83.424 309.508 80.832L318.436 92.064C315.076 95.52 310.804 98.4 305.62 100.704C300.532 103.008 294.82 104.16 288.484 104.16C279.844 104.16 272.212 102.144 265.588 98.112C258.964 94.08 253.828 88.176 250.18 80.4C246.532 72.528 244.708 63.072 244.708 52.032C244.708 41.184 246.58 31.872 250.324 24.096C254.164 16.32 259.348 10.416 265.876 6.384C272.5 2.352 279.94 0.335996 288.196 0.335996ZM367.371 0.335996C376.299 0.335996 384.027 2.352 390.555 6.384C397.083 10.416 402.075 16.32 405.531 24.096C409.083 31.872 410.859 41.232 410.859 52.176C410.859 63.024 409.083 72.336 405.531 80.112C401.979 87.888 396.939 93.84 390.411 97.968C383.883 102.096 376.203 104.16 367.371 104.16C358.443 104.16 350.715 102.144 344.187 98.112C337.659 94.08 332.619 88.176 329.067 80.4C325.515 72.624 323.739 63.264 323.739 52.32C323.739 41.568 325.515 32.304 329.067 24.528C332.619 16.656 337.659 10.656 344.187 6.52799C350.811 2.39999 358.539 0.335996 367.371 0.335996ZM367.371 14.88C359.691 14.88 353.835 17.904 349.803 23.952C345.771 29.904 343.755 39.36 343.755 52.32C343.755 77.184 351.627 89.616 367.371 89.616C375.051 89.616 380.859 86.64 384.795 80.688C388.827 74.736 390.843 65.232 390.843 52.176C390.843 39.216 388.827 29.76 384.795 23.808C380.859 17.856 375.051 14.88 367.371 14.88ZM502.213 102H477.589L443.461 21.504C444.325 28.608 444.949 35.04 445.333 40.8C445.813 46.56 446.053 53.424 446.053 61.392V102H428.773V2.49599H452.821L487.525 83.136C486.949 79.296 486.373 74.256 485.797 68.016C485.221 61.68 484.933 55.392 484.933 49.152V2.49599H502.213V102ZM563.683 0.335996C572.611 0.335996 580.339 2.352 586.867 6.384C593.395 10.416 598.387 16.32 601.843 24.096C605.395 31.872 607.171 41.232 607.171 52.176C607.171 63.024 605.395 72.336 601.843 80.112C598.291 87.888 593.251 93.84 586.723 97.968C580.195 102.096 572.515 104.16 563.683 104.16C554.755 104.16 547.027 102.144 540.499 98.112C533.971 94.08 528.931 88.176 525.379 80.4C521.827 72.624 520.051 63.264 520.051 52.32C520.051 41.568 521.827 32.304 525.379 24.528C528.931 16.656 533.971 10.656 540.499 6.52799C547.123 2.39999 554.851 0.335996 563.683 0.335996ZM563.683 14.88C556.003 14.88 550.147 17.904 546.115 23.952C542.083 29.904 540.067 39.36 540.067 52.32C540.067 77.184 547.939 89.616 563.683 89.616C571.363 89.616 577.171 86.64 581.107 80.688C585.139 74.736 587.155 65.232 587.155 52.176C587.155 39.216 585.139 29.76 581.107 23.808C577.171 17.856 571.363 14.88 563.683 14.88ZM718.281 102H699.705L697.113 60.384C696.249 45.504 695.817 33.696 695.817 24.96V19.776L677.673 91.2H659.673L640.377 19.632C640.569 25.968 640.665 30.768 640.665 34.032C640.665 42.768 640.377 51.744 639.801 60.96L637.353 102H618.921L626.841 2.49599H651.321L669.033 72.192L685.737 2.49599H710.505L718.281 102ZM805.21 2.49599L773.242 64.272V102H753.946V64.416L721.978 2.49599H743.002L764.026 48.72L785.05 2.49599H805.21Z" fill="black"/>
</svg>
