<svg width="88" height="80" viewBox="0 0 88 80" fill="none" xmlns="http://www.w3.org/2000/svg">
<g clip-path="url(#clip0)">
<path d="M41.6737 75.7164C53.0881 75.7164 62.3412 66.4632 62.3412 55.0489C62.3412 43.6345 53.0881 34.3813 41.6737 34.3813C30.2593 34.3813 21.0061 43.6345 21.0061 55.0489C21.0061 66.4632 30.2593 75.7164 41.6737 75.7164Z" fill="#F2F2F2"/>
<path d="M38.7539 79.3711C49.5856 79.3711 58.3664 78.1715 58.3664 76.6918C58.3664 75.2121 49.5856 74.0125 38.7539 74.0125C27.9222 74.0125 19.1414 75.2121 19.1414 76.6918C19.1414 78.1715 27.9222 79.3711 38.7539 79.3711Z" fill="#3F3D56"/>
<path d="M39.53 22.4037C40.2568 22.1594 40.7498 21.6754 40.6313 21.3226C40.5127 20.9698 39.8274 20.8818 39.1006 21.1261C38.3738 21.3704 37.8808 21.8545 37.9994 22.2073C38.118 22.56 38.8033 22.648 39.53 22.4037Z" fill="#3F3D56"/>
<path d="M36.501 24.8366L43.7836 21.5183C43.7836 21.5183 56.1216 16.8548 66.6762 28.2385C66.6762 28.2385 61.9459 25.2021 58.3606 29.2131C58.3606 29.2131 51.6138 27.3878 45.952 34.0944C45.952 34.0944 37.0967 35.4354 33.4085 40.1349C33.4085 40.1349 29.2968 39.5025 27.6602 44.715C27.6522 44.7405 27.6377 44.7635 27.6182 44.7818C27.5987 44.8001 27.5749 44.8131 27.5489 44.8196C27.523 44.826 27.4958 44.8257 27.47 44.8187C27.4442 44.8117 27.4207 44.7981 27.4016 44.7794C27.3789 44.7572 27.3636 44.7286 27.3576 44.6974C27.204 43.8918 25.3956 33.1458 36.501 24.8366Z" fill="#6C63FF"/>
<path opacity="0.2" d="M36.501 24.8366L43.7836 21.5183C43.7836 21.5183 56.1216 16.8548 66.6762 28.2385C66.6762 28.2385 61.9459 25.2021 58.3606 29.2131C58.3606 29.2131 51.6138 27.3878 45.952 34.0944C45.952 34.0944 37.0967 35.4354 33.4085 40.1349C33.4085 40.1349 29.2968 39.5025 27.6602 44.715C27.6522 44.7405 27.6377 44.7635 27.6182 44.7818C27.5987 44.8001 27.5749 44.8131 27.5489 44.8196C27.523 44.826 27.4958 44.8257 27.47 44.8187C27.4442 44.8117 27.4207 44.7981 27.4016 44.7794C27.3789 44.7572 27.3636 44.7286 27.3576 44.6974C27.204 43.8918 25.3956 33.1458 36.501 24.8366Z" fill="black"/>
<path d="M38.719 38.5854L41.7515 39.0908L42.7623 34.2893L40.3195 33.2785L38.719 38.5854Z" fill="#2F2E41"/>
<path d="M42.8887 37.6167C44.3309 37.6167 45.5 36.4475 45.5 35.0053C45.5 33.5631 44.3309 32.394 42.8887 32.394C41.4465 32.394 40.2773 33.5631 40.2773 35.0053C40.2773 36.4475 41.4465 37.6167 42.8887 37.6167Z" fill="#A0616A"/>
<path d="M41.7514 36.4795C41.7514 36.4795 42.0041 39.6805 40.0666 39.9332C38.1292 40.1859 41.7514 45.914 42.678 45.8298C43.6046 45.7455 45.2893 39.5962 45.2893 39.5962C45.2893 39.5962 43.0992 38.08 43.8573 36.7322L41.7514 36.4795Z" fill="#A0616A"/>
<path d="M38.5085 48.1463C38.5085 48.1463 38.8455 50.5891 39.8563 50.5891C40.8672 50.5891 39.1824 47.8094 39.1824 47.8094L38.5085 48.1463Z" fill="#A0616A"/>
<path d="M53.2498 50.5891C53.2498 50.5891 55.7769 52.6951 55.4399 53.3689C55.103 54.0428 52.9129 52.6108 52.7444 50.9261L53.2498 50.5891Z" fill="#A0616A"/>
<path d="M38.003 58.6759L36.4025 64.6567L34.6335 71.9011H36.3183C36.3183 71.9011 36.9079 69.6267 38.003 68.4473C38.003 68.4473 39.0981 66.5941 39.0981 65.3306L41.7094 59.1813L38.003 58.6759Z" fill="#A0616A"/>
<path d="M44.9104 59.0128L45.4158 64.6567C45.4158 64.6567 45.3316 68.7001 45.4158 69.6267C45.5001 70.5533 45.4158 71.9011 45.4158 71.9011H46.9321C46.9321 71.9011 48.3641 66.9311 47.9429 64.2355L48.5326 57.9178L44.9104 59.0128Z" fill="#A0616A"/>
<path d="M42.8886 43.5132C42.8886 43.5132 40.6191 41.7147 41.2063 39.2023C41.2063 39.2023 38.9295 39.3014 38.0028 40.228C37.0762 41.1546 38.2556 44.2714 38.2556 44.2714C38.2556 44.2714 40.2772 47.6408 39.9403 49.1571C39.6033 50.6733 35.9812 58.6758 37.1605 59.1813C38.3398 59.6867 45.4999 61.4557 49.1221 58.5074C49.1221 58.5074 50.0487 50.1679 46.3423 47.4724V45.3664C46.3423 45.3664 47.0162 44.7768 46.6792 43.2605C46.6792 43.2605 48.1113 40.6492 47.2689 40.1438C46.4265 39.6383 44.4916 38.8976 44.4916 38.8976C44.4916 38.8976 44.6576 42.6709 42.8886 43.5132Z" fill="#2F2E41"/>
<path d="M38.5085 40.228C38.5085 40.228 37.4134 40.0595 36.3183 41.66C35.2232 43.2605 32.3592 45.7876 33.707 47.0512C35.0548 48.3147 38.6769 49.1571 38.6769 49.1571L39.5193 47.6408L35.8971 45.8719L38.9296 43.5975L38.5085 40.228Z" fill="#2F2E41"/>
<path d="M46.8477 40.228C46.8477 40.228 48.0271 40.228 48.5325 41.66C49.0379 43.092 51.9862 47.9778 51.9862 47.9778L53.6709 50.5891L52.4916 51.9369L49.2064 48.2305L46.0896 43.0921L46.8477 40.228Z" fill="#2F2E41"/>
<path d="M36.6552 71.7326H34.2966L33.7912 75.8602C33.7912 75.8602 32.4434 78.0504 34.4651 77.7977C36.4868 77.545 35.8129 75.2706 35.8129 75.2706L36.3183 74.4282L36.4868 76.1972L36.6552 76.1129V74.1755C36.6552 74.1755 37.5818 73.3331 36.6552 71.7326Z" fill="#2F2E41"/>
<path d="M47.3532 71.7326L45.1631 71.5641L44.7419 76.2813C44.7419 76.2813 44.4892 78.0503 46.0054 77.7976C47.5217 77.5449 47.0163 76.1129 47.0163 76.1129V73.5015L47.3532 71.7326Z" fill="#2F2E41"/>
<path d="M40.9934 32.3519C40.9934 32.3519 39.7662 32.7609 39.7039 34.3764C39.6976 34.6348 39.7262 34.8928 39.7891 35.1435C39.8582 35.4364 39.9026 36.0665 39.3671 36.8899C39.0085 37.4336 38.6809 37.9971 38.3859 38.5777L38.3821 38.5854L39.7299 38.7539L40.0165 36.5198C40.1554 35.4367 40.4531 34.3799 40.8999 33.3835L40.9092 33.3627C40.9092 33.3627 41.4988 34.4578 42.6782 34.4578L42.257 34.0366C42.257 34.0366 44.1102 34.7947 44.7841 34.7947C44.7841 34.7947 45.2895 35.1317 44.7841 35.6371C44.2786 36.1425 43.2678 37.3218 43.8575 38.2484C44.4471 39.175 43.9417 39.4277 43.9417 39.4277L44.8683 38.9223L45.2895 38.6696V39.0066L47.4796 38.7539C47.4796 38.7539 48.0693 38.6696 46.8058 37.2376C46.8058 37.2376 46.4721 36.6815 46.6181 36.2019C46.738 35.8373 46.7695 35.4495 46.71 35.0704C46.427 33.4913 45.3164 30.3517 40.9934 32.3519Z" fill="#2F2E41"/>
<path d="M54.1659 53.2196C54.9994 52.372 54.0762 50.6166 54.0041 50.4831L44.4846 31.0442C44.4556 30.9855 44.4044 30.9406 44.3423 30.9195C44.2803 30.8984 44.2124 30.9027 44.1535 30.9316C44.0946 30.9604 44.0496 31.0114 44.0282 31.0733C44.0068 31.1353 44.0109 31.2032 44.0394 31.2622L53.5637 50.7107L53.5663 50.7156C53.5758 50.733 54.4949 52.4787 53.6763 52.9789C52.7947 53.518 51.7666 52.6447 51.7563 52.6358C51.7317 52.6145 51.7031 52.5982 51.6722 52.5879C51.6413 52.5776 51.6086 52.5735 51.5761 52.5759C51.5436 52.5782 51.5119 52.5869 51.4828 52.6015C51.4537 52.6162 51.4277 52.6364 51.4064 52.661C51.3851 52.6857 51.3689 52.7143 51.3586 52.7452C51.3484 52.7762 51.3444 52.8088 51.3468 52.8413C51.3492 52.8738 51.358 52.9055 51.3727 52.9346C51.3873 52.9637 51.4076 52.9896 51.4323 53.0109C51.4854 53.0568 52.748 54.1276 53.9349 53.4018C54.0191 53.3508 54.0967 53.2896 54.1659 53.2196V53.2196Z" fill="#3F3D56"/>
<path d="M35.8202 23.4427L42.8735 20.2289C42.8735 20.2289 54.8231 15.7122 65.0453 26.7376C65.0453 26.7376 60.464 23.7967 56.9915 27.6815C56.9915 27.6815 50.4572 25.9137 44.9736 32.4091C44.9736 32.4091 36.397 33.7078 32.825 38.2594C32.825 38.2594 28.7187 37.6279 27.1859 42.9334L26.9739 42.7249C26.9739 42.7249 24.639 31.8086 35.8202 23.4427Z" fill="#6C63FF"/>
<path d="M35.8548 23.4228C35.8548 23.4228 32.401 35.0474 32.8222 38.2484Z" fill="#3F3D56"/>
<path d="M39.5049 21.7637C39.5049 21.7637 43.8573 31.5937 44.9523 32.4361Z" fill="#3F3D56"/>
<path d="M42.8464 20.2217C42.8464 20.2217 54.0499 26.9607 56.9982 27.7188Z" fill="#3F3D56"/>
<path d="M26.0028 76.2442C25.9826 76.2111 25.5052 75.4141 25.3397 73.7589C25.1879 72.2404 25.2855 69.6808 26.6129 66.1105C29.1277 59.3466 26.0334 53.8892 26.0018 53.8348L26.1544 53.7462C26.1625 53.76 26.9609 55.1515 27.4326 57.3671C28.0558 60.3046 27.8289 63.3589 26.7784 66.172C24.2679 72.9243 26.1343 76.1208 26.1534 76.1523L26.0028 76.2442Z" fill="#3F3D56"/>
<path d="M25.0194 53.4377C25.6528 53.4377 26.1663 52.9242 26.1663 52.2908C26.1663 51.6574 25.6528 51.144 25.0194 51.144C24.386 51.144 23.8726 51.6574 23.8726 52.2908C23.8726 52.9242 24.386 53.4377 25.0194 53.4377Z" fill="#3F3D56"/>
<path d="M28.6366 57.6722C29.27 57.6722 29.7834 57.1587 29.7834 56.5253C29.7834 55.8919 29.27 55.3785 28.6366 55.3785C28.0032 55.3785 27.4897 55.8919 27.4897 56.5253C27.4897 57.1587 28.0032 57.6722 28.6366 57.6722Z" fill="#3F3D56"/>
<path d="M26.1664 60.4952C26.7998 60.4952 27.3132 59.9817 27.3132 59.3483C27.3132 58.7149 26.7998 58.2015 26.1664 58.2015C25.533 58.2015 25.0195 58.7149 25.0195 59.3483C25.0195 59.9817 25.533 60.4952 26.1664 60.4952Z" fill="#6C63FF"/>
<path d="M29.1659 62.8771C29.7993 62.8771 30.3127 62.3637 30.3127 61.7303C30.3127 61.0969 29.7993 60.5834 29.1659 60.5834C28.5325 60.5834 28.019 61.0969 28.019 61.7303C28.019 62.3637 28.5325 62.8771 29.1659 62.8771Z" fill="#6C63FF"/>
<path d="M25.2843 66.5823C25.9177 66.5823 26.4312 66.0689 26.4312 65.4355C26.4312 64.8021 25.9177 64.2886 25.2843 64.2886C24.6509 64.2886 24.1375 64.8021 24.1375 65.4355C24.1375 66.0689 24.6509 66.5823 25.2843 66.5823Z" fill="#3F3D56"/>
<path d="M26.6957 76.2864C26.6957 76.2864 25.5489 73.4634 28.9894 71.3462L26.6957 76.2864Z" fill="#3F3D56"/>
<path d="M25.2853 76.2353C25.2853 76.2353 24.7634 73.2332 20.7236 73.2589L25.2853 76.2353Z" fill="#3F3D56"/>
<path d="M18.3092 0L22.3459 2.20862L14.5245 7.38872L10.783 4.9205L18.3092 0Z" fill="#3F3D56"/>
<path d="M8.60159 7.01703L0 12.5623L3.99455 14.9364L12.5929 9.19633L8.60159 7.01703Z" fill="#3F3D56"/>
<path d="M10.1848 4.26479C9.72643 4.48799 9.32431 4.81169 9.00835 5.2118C8.6924 5.61192 8.47075 6.07813 8.35991 6.57576C8.31607 6.75685 8.32361 6.94658 8.38166 7.12363C8.43971 7.30067 8.54597 7.45803 8.68852 7.57801L11.1752 9.67809C11.354 9.82881 11.5745 9.92156 11.8073 9.94402C12.0401 9.96648 12.2742 9.91758 12.4786 9.80383C13.4896 9.24317 15.1132 8.06625 14.3882 6.57576C14.3072 6.4102 14.1832 6.26942 14.0293 6.16807L11.2579 4.33544C11.1007 4.23113 10.919 4.16973 10.7307 4.15734C10.5425 4.14494 10.3543 4.18199 10.1848 4.26479V4.26479Z" fill="#D0CDE1"/>
<path d="M17.7171 10.8852C19.0663 9.07324 19.1624 6.8616 17.9318 5.94539C16.7013 5.02917 14.61 5.75534 13.2609 7.56732C11.9118 9.3793 11.8157 11.5909 13.0462 12.5072C14.2768 13.4234 16.368 12.6972 17.7171 10.8852Z" fill="#3F3D56"/>
<path opacity="0.2" d="M14.2227 12.4606C14.7269 12.8362 15.926 12.0958 17.0039 10.7822C17.0994 10.6661 17.1938 10.5455 17.2871 10.4205C17.3554 10.3286 17.4213 10.2368 17.4846 10.145C18.4841 8.70081 18.8792 7.28423 18.363 6.89991C17.8429 6.51251 16.5847 7.31156 15.4816 8.70169C15.42 8.77957 15.359 8.85902 15.2986 8.94003C15.0898 9.21999 14.8967 9.51132 14.7203 9.81267C14.0093 11.033 13.7782 12.1294 14.2227 12.4606Z" fill="black"/>
<path d="M14.7202 9.81267L17.0039 10.7822L18.6379 11.4758L18.8795 11.1497L17.4846 10.145L15.4815 8.70169C15.4199 8.77957 15.359 8.85902 15.2986 8.94003C15.0898 9.21999 14.8967 9.51132 14.7202 9.81267V9.81267Z" fill="#D0CDE1"/>
<path d="M19.0809 12.0322C19.355 12.0322 19.5772 11.8099 19.5772 11.5358C19.5772 11.2616 19.355 11.0394 19.0809 11.0394C18.8067 11.0394 18.5845 11.2616 18.5845 11.5358C18.5845 11.8099 18.8067 12.0322 19.0809 12.0322Z" fill="#D0CDE1"/>
<path d="M19.2266 16.7794C19.2582 16.7505 19.297 16.7307 19.3389 16.7221C22.0125 16.1697 23.6949 14.6303 24.4819 12.0161C24.5001 11.9557 24.5416 11.9051 24.5971 11.8753C24.6527 11.8454 24.7178 11.8389 24.7781 11.8571C24.8385 11.8752 24.8892 11.9166 24.9191 11.9722C24.9489 12.0277 24.9555 12.0928 24.9374 12.1532C24.1071 14.9112 22.2559 16.6051 19.4351 17.188C19.3841 17.1985 19.331 17.192 19.2841 17.1694C19.2371 17.1469 19.1988 17.1095 19.1752 17.0631C19.1515 17.0167 19.1437 16.9638 19.153 16.9126C19.1623 16.8613 19.1881 16.8145 19.2266 16.7794H19.2266Z" fill="#6C63FF"/>
<path d="M18.5686 14.7097C18.6002 14.6808 18.639 14.661 18.681 14.6524C20.6856 14.2382 21.947 13.084 22.5371 11.1239C22.5554 11.0635 22.5968 11.0129 22.6524 10.9831C22.7079 10.9534 22.773 10.9468 22.8333 10.965C22.8937 10.9832 22.9444 11.0245 22.9742 11.08C23.0041 11.1355 23.0107 11.2006 22.9927 11.261C22.3565 13.374 20.9383 14.6717 18.7772 15.1183C18.7262 15.1288 18.6731 15.1223 18.6261 15.0998C18.5792 15.0772 18.5409 15.0399 18.5172 14.9935C18.4935 14.9471 18.4857 14.8942 18.495 14.8429C18.5043 14.7916 18.5302 14.7449 18.5686 14.7097L18.5686 14.7097Z" fill="#6C63FF"/>
<path d="M20.1988 18.8988C20.2303 18.8699 20.2691 18.8501 20.3111 18.8415C22.9792 18.2902 25.897 15.6204 26.6824 13.0115C26.7006 12.9512 26.7421 12.9006 26.7976 12.8708C26.8531 12.841 26.9182 12.8345 26.9786 12.8527C27.0389 12.8708 27.0896 12.9122 27.1195 12.9677C27.1493 13.0232 27.156 13.0882 27.1379 13.1486C26.3082 15.9046 23.226 18.725 20.4073 19.3074C20.3563 19.3179 20.3032 19.3114 20.2562 19.2888C20.2093 19.2663 20.171 19.2289 20.1473 19.1825C20.1237 19.1361 20.1159 19.0832 20.1252 19.032C20.1344 18.9807 20.1603 18.9339 20.1988 18.8988H20.1988Z" fill="#6C63FF"/>
<path d="M69.691 0L65.6543 2.20862L73.4756 7.38872L77.2172 4.9205L69.691 0Z" fill="#3F3D56"/>
<path d="M79.3985 7.01703L88 12.5623L84.0055 14.9364L75.4072 9.19633L79.3985 7.01703Z" fill="#3F3D56"/>
<path d="M77.8153 4.26479C78.2737 4.48799 78.6758 4.81169 78.9918 5.2118C79.3077 5.61192 79.5294 6.07813 79.6402 6.57576C79.684 6.75685 79.6765 6.94658 79.6185 7.12363C79.5604 7.30067 79.4541 7.45803 79.3116 7.57801L76.8249 9.67809C76.6461 9.82881 76.4256 9.92156 76.1928 9.94402C75.96 9.96647 75.7259 9.91758 75.5215 9.80382C74.5105 9.24317 72.8869 8.06625 73.6119 6.57576C73.6929 6.4102 73.8169 6.26941 73.9709 6.16807L76.7422 4.33544C76.8994 4.23113 77.0811 4.16973 77.2694 4.15734C77.4576 4.14494 77.6458 4.18199 77.8153 4.26479V4.26479Z" fill="#D0CDE1"/>
<path d="M74.9538 12.5072C76.1844 11.5909 76.0882 9.3793 74.7391 7.56732C73.39 5.75534 71.2988 5.02917 70.0682 5.94539C68.8376 6.8616 68.9338 9.07324 70.2829 10.8852C71.632 12.6972 73.7232 13.4234 74.9538 12.5072Z" fill="#3F3D56"/>
<path opacity="0.2" d="M73.777 12.4606C73.2728 12.8362 72.0737 12.0958 70.9958 10.7822C70.9003 10.6661 70.8059 10.5455 70.7126 10.4205C70.6443 10.3286 70.5785 10.2368 70.5151 10.145C69.5156 8.70081 69.1205 7.28423 69.6368 6.89991C70.1568 6.51251 71.4151 7.31156 72.5181 8.70169C72.5797 8.77957 72.6407 8.85902 72.7011 8.94003C72.9099 9.21999 73.103 9.51132 73.2795 9.81267C73.9904 11.033 74.2215 12.1294 73.777 12.4606Z" fill="black"/>
<path d="M73.2796 9.81267L70.9959 10.7822L69.362 11.4758L69.1204 11.1497L70.5153 10.145L72.5183 8.70169C72.5799 8.77957 72.6409 8.85902 72.7013 8.94003C72.9101 9.21999 73.1031 9.51132 73.2796 9.81267V9.81267Z" fill="#D0CDE1"/>
<path d="M68.9192 12.0322C69.1934 12.0322 69.4156 11.8099 69.4156 11.5358C69.4156 11.2616 69.1934 11.0394 68.9192 11.0394C68.6451 11.0394 68.4229 11.2616 68.4229 11.5358C68.4229 11.8099 68.6451 12.0322 68.9192 12.0322Z" fill="#D0CDE1"/>
<path d="M68.7735 16.7794C68.742 16.7505 68.7032 16.7307 68.6612 16.7221C65.9876 16.1697 64.3053 14.6303 63.5183 12.0161C63.5 11.9557 63.4586 11.9051 63.403 11.8753C63.3475 11.8454 63.2824 11.8389 63.222 11.8571C63.1617 11.8752 63.111 11.9166 63.0811 11.9722C63.0513 12.0277 63.0447 12.0928 63.0628 12.1532C63.8931 14.9112 65.7443 16.6051 68.565 17.188C68.616 17.1985 68.6691 17.192 68.7161 17.1694C68.763 17.1469 68.8013 17.1095 68.825 17.0631C68.8487 17.0167 68.8565 16.9638 68.8472 16.9126C68.8379 16.8613 68.812 16.8145 68.7735 16.7794H68.7735Z" fill="#6C63FF"/>
<path d="M69.4316 14.7097C69.4 14.6808 69.3612 14.661 69.3193 14.6524C67.3146 14.2382 66.0532 13.084 65.4631 11.1239C65.4448 11.0635 65.4034 11.0129 65.3478 10.9831C65.2923 10.9534 65.2272 10.9468 65.1669 10.965C65.1065 10.9832 65.0558 11.0245 65.026 11.08C64.9961 11.1355 64.9895 11.2006 65.0076 11.261C65.6437 13.374 67.0619 14.6718 69.223 15.1183C69.2741 15.1288 69.3271 15.1223 69.3741 15.0998C69.4211 15.0772 69.4593 15.0399 69.483 14.9935C69.5067 14.9471 69.5145 14.8942 69.5052 14.8429C69.4959 14.7916 69.47 14.7449 69.4316 14.7097V14.7097Z" fill="#6C63FF"/>
<path d="M67.8014 18.8988C67.7698 18.8699 67.731 18.8501 67.6891 18.8415C65.0209 18.2902 62.1032 15.6204 61.3178 13.0115C61.2995 12.9512 61.2581 12.9006 61.2026 12.8708C61.147 12.841 61.0819 12.8345 61.0216 12.8527C60.9612 12.8708 60.9106 12.9122 60.8807 12.9677C60.8508 13.0232 60.8442 13.0882 60.8623 13.1486C61.692 15.9046 64.7742 18.725 67.5929 19.3074C67.6439 19.3179 67.697 19.3114 67.7439 19.2888C67.7909 19.2663 67.8291 19.2289 67.8528 19.1825C67.8765 19.1361 67.8843 19.0832 67.875 19.032C67.8657 18.9807 67.8399 18.9339 67.8014 18.8988V18.8988Z" fill="#6C63FF"/>
</g>
<defs>
<clipPath id="clip0">
<rect width="88" height="79.3711" fill="white"/>
</clipPath>
</defs>
</svg>
