<svg width="88" height="79" viewBox="0 0 88 79" fill="none" xmlns="http://www.w3.org/2000/svg">
<g clip-path="url(#clip0)">
<path d="M44.1741 1.10034L16.5574 18.0952C16.5574 18.0952 16.5574 53.1472 44.1741 72.2665C71.7908 53.1472 71.7908 18.0952 71.7908 18.0952L44.1741 1.10034Z" fill="#3F3D56"/>
<path opacity="0.04" d="M44.339 1.10034L43.8669 1.39085V71.935C44.0237 72.0458 44.1804 72.1567 44.339 72.2665C71.9557 53.1472 71.9557 18.0952 71.9557 18.0952L44.339 1.10034Z" fill="#6C63FF"/>
<g opacity="0.7">
<path opacity="0.7" d="M37.4881 35.5388L42.6943 40.3111L49.1482 31.0007L51.7513 33.17L42.6943 44.6497L35.3188 36.4065L37.4881 35.5388Z" fill="url(#paint0_linear)"/>
</g>
<path d="M38.717 35.8255L42.9401 39.6967L48.923 30.8983L51.0347 32.658L42.9401 43.2161L36.9573 36.5293L38.717 35.8255Z" fill="#3AD29F"/>
<path opacity="0.5" d="M16.9252 4.9106C16.8405 4.87374 16.7724 4.80702 16.7337 4.72317C16.6951 4.63932 16.6886 4.54418 16.7155 4.45586C16.7199 4.44232 16.7226 4.42831 16.7237 4.41413V4.41413C16.7262 4.37366 16.7155 4.33348 16.6934 4.29953C16.6712 4.26559 16.6387 4.23968 16.6007 4.22565C16.5627 4.21162 16.5211 4.21021 16.4822 4.22164C16.4433 4.23306 16.4091 4.25671 16.3847 4.28908V4.28908C16.3763 4.30057 16.3693 4.313 16.3639 4.32613C16.327 4.41078 16.2603 4.47893 16.1764 4.51759C16.0926 4.55625 15.9974 4.56272 15.9091 4.53579C15.8956 4.53143 15.8816 4.52868 15.8674 4.5276C15.8269 4.52514 15.7867 4.53578 15.7528 4.55793C15.7188 4.58009 15.6929 4.6126 15.6789 4.65063C15.6649 4.68866 15.6635 4.73021 15.6749 4.7691C15.6863 4.808 15.71 4.84218 15.7423 4.86658V4.86658C15.7538 4.87498 15.7662 4.88198 15.7794 4.88746C15.864 4.92433 15.9322 4.99104 15.9708 5.0749C16.0095 5.15875 16.016 5.25389 15.989 5.34221C15.9847 5.35575 15.9819 5.36976 15.9809 5.38394V5.38394C15.9784 5.4244 15.989 5.46459 16.0112 5.49853C16.0333 5.53248 16.0658 5.55839 16.1039 5.57242C16.1419 5.58645 16.1835 5.58786 16.2224 5.57643C16.2612 5.56501 16.2954 5.54136 16.3198 5.50899V5.50899C16.3282 5.4975 16.3352 5.48507 16.3407 5.47194C16.3776 5.38728 16.4443 5.31914 16.5281 5.28048C16.612 5.24182 16.7071 5.23534 16.7955 5.26228C16.809 5.26664 16.823 5.26939 16.8372 5.27046V5.27046C16.8777 5.27293 16.9178 5.26229 16.9518 5.24013C16.9857 5.21797 17.0116 5.18547 17.0257 5.14744C17.0397 5.1094 17.0411 5.06786 17.0297 5.02897C17.0183 4.99007 16.9946 4.95589 16.9622 4.93148V4.93148C16.9508 4.92309 16.9383 4.91608 16.9252 4.9106V4.9106Z" fill="#4D8AF0"/>
<path opacity="0.5" d="M1.97523 38.1897C1.89058 38.1528 1.82244 38.0861 1.78378 38.0022C1.74512 37.9184 1.73864 37.8232 1.76558 37.7349C1.76994 37.7214 1.77268 37.7074 1.77376 37.6932V37.6932C1.77622 37.6527 1.76559 37.6125 1.74343 37.5786C1.72127 37.5446 1.68877 37.5187 1.65073 37.5047C1.6127 37.4907 1.57116 37.4893 1.53226 37.5007C1.49337 37.5121 1.45918 37.5358 1.43478 37.5681V37.5681C1.42639 37.5796 1.41938 37.5921 1.4139 37.6052C1.37703 37.6898 1.31032 37.758 1.22647 37.7966C1.14261 37.8353 1.04747 37.8418 0.959154 37.8148C0.945614 37.8105 0.931608 37.8077 0.917424 37.8067V37.8067C0.87696 37.8042 0.836778 37.8148 0.802831 37.837C0.768883 37.8591 0.742975 37.8916 0.728945 37.9297C0.714915 37.9677 0.713508 38.0093 0.724933 38.0482C0.736358 38.087 0.760007 38.1212 0.792378 38.1456C0.803862 38.154 0.816298 38.161 0.829425 38.1665C0.914081 38.2034 0.982224 38.2701 1.02088 38.3539C1.05954 38.4378 1.06602 38.5329 1.03908 38.6213C1.03472 38.6348 1.03198 38.6488 1.0309 38.663V38.663C1.02844 38.7034 1.03907 38.7436 1.06123 38.7776C1.08339 38.8115 1.11589 38.8374 1.15393 38.8515C1.19196 38.8655 1.2335 38.8669 1.2724 38.8555C1.31129 38.844 1.34548 38.8204 1.36988 38.788C1.37827 38.7765 1.38528 38.7641 1.39076 38.751C1.42763 38.6663 1.49434 38.5982 1.57819 38.5595C1.66204 38.5209 1.75718 38.5144 1.8455 38.5413C1.85904 38.5457 1.87305 38.5484 1.88723 38.5495V38.5495C1.9277 38.552 1.96788 38.5413 2.00183 38.5192C2.03577 38.497 2.06168 38.4645 2.07571 38.4265C2.08974 38.3884 2.09115 38.3469 2.07972 38.308C2.0683 38.2691 2.04465 38.2349 2.01228 38.2105C2.0008 38.2021 1.98836 38.1951 1.97523 38.1897V38.1897Z" fill="#4D8AF0"/>
<path opacity="0.5" d="M76.6339 26.6233C76.9732 26.6233 77.2483 26.3482 77.2483 26.0089C77.2483 25.6696 76.9732 25.3945 76.6339 25.3945C76.2946 25.3945 76.0195 25.6696 76.0195 26.0089C76.0195 26.3482 76.2946 26.6233 76.6339 26.6233Z" fill="#F55F44"/>
<path opacity="0.5" d="M12.431 70.5516C12.7704 70.5516 13.0454 70.2766 13.0454 69.9373C13.0454 69.5979 12.7704 69.3229 12.431 69.3229C12.0917 69.3229 11.8167 69.5979 11.8167 69.9373C11.8167 70.2766 12.0917 70.5516 12.431 70.5516Z" fill="#F55F44"/>
<path opacity="0.5" d="M87.0785 50.277C87.4178 50.277 87.6929 50.0019 87.6929 49.6626C87.6929 49.3233 87.4178 49.0482 87.0785 49.0482C86.7392 49.0482 86.4641 49.3233 86.4641 49.6626C86.4641 50.0019 86.7392 50.277 87.0785 50.277Z" fill="#F55F44"/>
<path opacity="0.5" d="M72.1173 7.88009C72.0326 7.84322 71.9645 7.77651 71.9258 7.69266C71.8872 7.6088 71.8807 7.51366 71.9076 7.42534C71.912 7.4118 71.9147 7.3978 71.9158 7.38361V7.38361C71.9183 7.34315 71.9076 7.30296 71.8855 7.26902C71.8633 7.23507 71.8308 7.20916 71.7928 7.19513C71.7548 7.1811 71.7132 7.17969 71.6743 7.19112C71.6354 7.20254 71.6013 7.22619 71.5768 7.25856C71.5685 7.27005 71.5614 7.28248 71.556 7.29561C71.5191 7.38027 71.4524 7.44841 71.3685 7.48707C71.2847 7.52573 71.1896 7.53221 71.1012 7.50527C71.0877 7.50091 71.0737 7.49816 71.0595 7.49709V7.49709C71.019 7.49462 70.9789 7.50526 70.9449 7.52742C70.911 7.54958 70.8851 7.58208 70.871 7.62012C70.857 7.65815 70.8556 7.69969 70.867 7.73859C70.8784 7.77748 70.9021 7.81166 70.9345 7.83607V7.83607C70.9459 7.84446 70.9584 7.85147 70.9715 7.85695C71.0562 7.89382 71.1243 7.96053 71.163 8.04438C71.2016 8.12823 71.2081 8.22338 71.1812 8.31169C71.1768 8.32524 71.1741 8.33924 71.173 8.35343V8.35343C71.1705 8.39389 71.1811 8.43407 71.2033 8.46802C71.2255 8.50197 71.258 8.52788 71.296 8.54191C71.334 8.55594 71.3756 8.55734 71.4145 8.54592C71.4534 8.53449 71.4875 8.51084 71.5119 8.47847V8.47847C71.5203 8.46699 71.5273 8.45455 71.5328 8.44143C71.5697 8.35677 71.6364 8.28863 71.7203 8.24997C71.8041 8.21131 71.8992 8.20483 71.9876 8.23177C72.0011 8.23613 72.0151 8.23887 72.0293 8.23995V8.23995C72.0697 8.24241 72.1099 8.23178 72.1439 8.20962C72.1778 8.18746 72.2037 8.15496 72.2178 8.11692C72.2318 8.07889 72.2332 8.03735 72.2218 7.99845C72.2103 7.95956 72.1867 7.92537 72.1543 7.90097C72.1428 7.89258 72.1304 7.88557 72.1173 7.88009V7.88009Z" fill="#4D8AF0"/>
<path opacity="0.5" d="M82.3568 72.1855C82.2721 72.1486 82.204 72.0819 82.1653 71.9981C82.1267 71.9142 82.1202 71.8191 82.1471 71.7308C82.1515 71.7172 82.1542 71.7032 82.1553 71.689V71.689C82.1578 71.6486 82.1471 71.6084 82.125 71.5744C82.1028 71.5405 82.0703 71.5146 82.0323 71.5006C81.9943 71.4865 81.9527 71.4851 81.9138 71.4965C81.8749 71.508 81.8408 71.5316 81.8164 71.564C81.808 71.5755 81.801 71.5879 81.7955 71.601C81.7586 71.6857 81.6919 71.7538 81.608 71.7925C81.5242 71.8312 81.4291 71.8376 81.3407 71.8107C81.3272 71.8063 81.3132 71.8036 81.299 71.8025V71.8025C81.2585 71.8 81.2184 71.8107 81.1844 71.8328C81.1505 71.855 81.1246 71.8875 81.1105 71.9255C81.0965 71.9636 81.0951 72.0051 81.1065 72.044C81.1179 72.0829 81.1416 72.1171 81.174 72.1415V72.1415C81.1854 72.1499 81.1979 72.1569 81.211 72.1624C81.2957 72.1992 81.3638 72.266 81.4025 72.3498C81.4411 72.4337 81.4476 72.5288 81.4207 72.6171C81.4163 72.6307 81.4136 72.6447 81.4125 72.6589V72.6589C81.41 72.6993 81.4207 72.7395 81.4428 72.7735C81.465 72.8074 81.4975 72.8333 81.5355 72.8473C81.5735 72.8614 81.6151 72.8628 81.654 72.8514C81.6929 72.8399 81.727 72.8163 81.7515 72.7839V72.7839C81.7598 72.7724 81.7669 72.76 81.7723 72.7469C81.8092 72.6622 81.8759 72.5941 81.9598 72.5554C82.0436 72.5167 82.1387 72.5103 82.2271 72.5372C82.2406 72.5416 82.2546 72.5443 82.2688 72.5454V72.5454C82.3093 72.5478 82.3494 72.5372 82.3834 72.515C82.4173 72.4929 82.4432 72.4604 82.4573 72.4224C82.4713 72.3843 82.4727 72.3428 82.4613 72.3039C82.4499 72.265 82.4262 72.2308 82.3938 72.2064C82.3824 72.198 82.3699 72.191 82.3568 72.1855V72.1855Z" fill="#4D8AF0"/>
<path opacity="0.5" d="M1.25844 18.7342C1.17378 18.6973 1.10564 18.6306 1.06698 18.5468C1.02832 18.4629 1.02184 18.3678 1.04878 18.2795C1.05314 18.2659 1.05589 18.2519 1.05696 18.2377V18.2377C1.05943 18.1973 1.04879 18.1571 1.02663 18.1231C1.00447 18.0892 0.97197 18.0633 0.933936 18.0493C0.895902 18.0352 0.854361 18.0338 0.815465 18.0452C0.776569 18.0567 0.742388 18.0803 0.717983 18.1127C0.709591 18.1242 0.702582 18.1366 0.697104 18.1497C0.660235 18.2344 0.593523 18.3025 0.50967 18.3412C0.425817 18.3799 0.330676 18.3863 0.242357 18.3594C0.228817 18.355 0.214811 18.3523 0.200627 18.3512V18.3512C0.160163 18.3487 0.119981 18.3594 0.0860337 18.3815C0.0520864 18.4037 0.0261786 18.4362 0.0121483 18.4742C-0.00188198 18.5123 -0.003289 18.5538 0.00813594 18.5927C0.0195609 18.6316 0.0432105 18.6658 0.0755809 18.6902V18.6902C0.0870657 18.6986 0.0995009 18.7056 0.112628 18.7111C0.197284 18.7479 0.265427 18.8147 0.304087 18.8985C0.342747 18.9824 0.349222 19.0775 0.322283 19.1658C0.317924 19.1794 0.315179 19.1934 0.314102 19.2076V19.2076C0.311639 19.248 0.322274 19.2882 0.344433 19.3221C0.366591 19.3561 0.399095 19.382 0.437129 19.396C0.475162 19.4101 0.516704 19.4115 0.5556 19.4C0.594496 19.3886 0.628679 19.365 0.653083 19.3326V19.3326C0.661476 19.3211 0.668484 19.3087 0.673963 19.2956C0.710832 19.2109 0.777542 19.1428 0.861395 19.1041C0.945248 19.0654 1.04039 19.059 1.12871 19.0859C1.14225 19.0903 1.15625 19.093 1.17044 19.0941V19.0941C1.2109 19.0965 1.25108 19.0859 1.28503 19.0637C1.31898 19.0416 1.34488 19.0091 1.35892 18.971C1.37295 18.933 1.37435 18.8915 1.36293 18.8526C1.3515 18.8137 1.32785 18.7795 1.29548 18.7551C1.284 18.7467 1.27156 18.7397 1.25844 18.7342V18.7342Z" fill="#4D8AF0"/>
<path opacity="0.5" d="M8.13025 29.6952C8.46957 29.6952 8.74463 29.4201 8.74463 29.0808C8.74463 28.7415 8.46957 28.4664 8.13025 28.4664C7.79094 28.4664 7.51587 28.7415 7.51587 29.0808C7.51587 29.4201 7.79094 29.6952 8.13025 29.6952Z" fill="#47E6B1"/>
<path opacity="0.5" d="M87.3856 34.6102C87.7249 34.6102 88 34.3352 88 33.9959C88 33.6565 87.7249 33.3815 87.3856 33.3815C87.0463 33.3815 86.7712 33.6565 86.7712 33.9959C86.7712 34.3352 87.0463 34.6102 87.3856 34.6102Z" fill="#47E6B1"/>
<g opacity="0.5">
<path opacity="0.5" d="M60.0457 0H59.7385V1.74075H60.0457V0Z" fill="#47E6B1"/>
<path opacity="0.5" d="M60.7625 1.02399V0.716797L59.0217 0.716797V1.02399H60.7625Z" fill="#47E6B1"/>
</g>
<g opacity="0.5">
<path opacity="0.5" d="M61.1719 68.1965H60.8647V69.9373H61.1719V68.1965Z" fill="#47E6B1"/>
<path opacity="0.5" d="M61.8887 69.2205V68.9133H60.1479V69.2205H61.8887Z" fill="#47E6B1"/>
</g>
<g opacity="0.5">
<path opacity="0.5" d="M3.01032 71.8828H2.70312V73.6236H3.01032V71.8828Z" fill="#47E6B1"/>
<path opacity="0.5" d="M3.72705 72.9068V72.5996H1.9863V72.9068H3.72705Z" fill="#47E6B1"/>
</g>
<g opacity="0.5">
<path opacity="0.5" d="M72.9476 40.5493H72.6404V42.2901H72.9476V40.5493Z" fill="#47E6B1"/>
<path opacity="0.5" d="M73.6643 41.5733V41.2661H71.9236V41.5733H73.6643Z" fill="#47E6B1"/>
</g>
<path opacity="0.5" d="M81.4678 12.5967L82.1276 13.2015L83.0622 11.8269L83.3922 12.1018L82.1276 13.7514L81.1929 12.7067L81.4678 12.5967Z" fill="#47E6B1"/>
<path d="M62.6332 24.5007L60.3574 24.589L60.4709 27.5151L62.7467 27.4268L62.6332 24.5007Z" fill="#6C63FF"/>
<path d="M52.3667 34.7486C52.3667 34.7486 49.2151 33.2427 49.2655 34.5432C49.3159 35.8437 52.4424 36.6993 52.4424 36.6993L52.3667 34.7486Z" fill="#FFB9B9"/>
<path d="M54.0961 45.7521C54.0961 45.7521 52.6091 49.3915 52.0598 52.0177C51.5104 54.6438 50.6737 58.258 51.7499 60.8211C52.8261 63.3843 55.8859 70.9174 55.9174 71.7302C55.949 72.543 55.6554 73.3684 56.3056 73.3432C56.9558 73.318 60.4943 72.204 60.638 71.71C60.7816 71.216 59.4307 69.9659 59.4307 69.9659L56.0949 59.513L59.5753 52.703L62.0857 62.8624L62.5774 75.5421C62.5774 75.5421 64.9906 74.7973 65.3409 75.4349C65.3409 75.4349 66.4221 73.9277 66.5595 73.2712C66.6968 72.6146 66.0489 60.1038 66.0489 60.1038C66.0489 60.1038 68.264 45.8539 66.4758 45.9233C64.6876 45.9926 57.6836 41.7057 54.0961 45.7521Z" fill="#6C63FF"/>
<path d="M56.2805 72.693C56.2805 72.693 54.631 76.3387 54.4747 76.5075C54.3185 76.6764 53.2436 78.3461 54.0564 78.3146C54.8692 78.2831 56.7884 77.3946 58.201 76.0374C59.6136 74.6802 61.4761 72.3287 61.3072 72.1724C61.1383 72.0162 59.9815 71.5726 59.9815 71.5726L56.2805 72.693Z" fill="#575A89"/>
<path d="M62.8709 74.7167C62.8709 74.7167 62.7714 76.3486 62.4715 77.0114C62.1716 77.6743 62.2094 78.6496 63.0222 78.6181C63.835 78.5866 65.9357 78.1795 65.9357 78.1795C65.9357 78.1795 66.0604 77.1979 65.8915 77.0416C65.7227 76.8853 65.0031 75.1224 65.3093 74.6221C65.6155 74.1218 62.8709 74.7167 62.8709 74.7167Z" fill="#575A89"/>
<path d="M64.0734 21.7585C64.0734 21.7585 65.8062 24.459 66.4817 25.0841C67.1571 25.7091 65.2568 27.0852 65.2568 27.0852L61.8557 27.5427C61.8557 27.5427 61.8985 24.4478 61.7233 24.1289C61.5481 23.8101 64.0734 21.7585 64.0734 21.7585Z" fill="#FFB9B9"/>
<path d="M61.1173 25.292C61.1173 25.292 61.818 26.5673 62.4682 26.5421C63.1184 26.5169 66.4818 25.084 66.6254 24.59C66.7691 24.0961 67.7395 28.1285 67.7395 28.1285L59.5096 42.6117L57.5022 41.2243L58.4749 32.7207L59.2737 28.1312L61.1173 25.292Z" fill="#6C63FF"/>
<path d="M66.9289 38.2539C66.6006 38.9406 66.3956 39.6568 66.424 40.3899C66.4253 40.4224 66.4265 40.4549 66.4294 40.4874C66.5073 41.9919 67.0616 43.732 67.2604 44.9974C67.4047 45.9051 67.3636 46.5677 66.8324 46.7234C65.5445 47.099 67.0202 47.3674 62.0376 49.0258C57.055 50.6843 56.1854 49.2528 56.1728 48.9277C56.1602 48.6025 56.8784 46.1326 56.7096 45.9764C56.5407 45.8201 54.3468 48.0216 53.684 47.7217C53.0211 47.4218 53.6083 45.771 53.6083 45.771C53.6083 45.771 55.1016 42.2942 55.07 41.4814C55.0385 40.6686 57.3319 36.8352 57.3319 36.8352L58.8918 26.6809C58.8918 26.6809 59.4916 25.3552 60.2981 25.1611C61.1046 24.967 61.7738 25.4295 61.7738 25.4295L60.4242 28.4123L59.0003 33.6772L59.2385 35.6216C59.2385 35.6216 60.8943 32.1385 61.9818 30.7939C63.0693 29.4493 65.3879 26.2661 65.3879 26.2661C65.3879 26.2661 65.9292 24.4396 65.5206 23.8938C65.1119 23.3464 67.2251 23.2644 68.1262 25.5087C68.6038 26.6982 69.3791 28.472 69.8648 30.1236C70.2976 31.5867 70.5021 32.9544 70.0733 33.7362C69.4179 34.9306 67.7694 36.5005 66.9289 38.2539Z" fill="#575A89"/>
<path opacity="0.1" d="M70.0732 33.7363C69.4179 34.9307 67.7693 36.5005 66.9289 38.254C66.7093 37.4631 66.4416 36.6448 66.4416 36.6448C66.4416 36.6448 65.4144 31.1493 68.4526 29.729C68.956 29.6804 69.4595 29.8211 69.8648 30.1236C70.2976 31.5867 70.502 32.9545 70.0732 33.7363Z" fill="black"/>
<path d="M58.0124 33.3899L55.4367 34.141L51.8603 34.2797L51.4924 37.3872L57.3698 37.8105C57.3698 37.8105 58.8378 33.6835 58.0124 33.3899Z" fill="#575A89"/>
<path d="M62.2126 43.8385C62.2126 43.8385 58.7668 44.4102 59.5532 45.4471C60.3397 46.4841 63.3923 45.3939 63.3923 45.3939L62.2126 43.8385Z" fill="#FFB9B9"/>
<path opacity="0.1" d="M66.4295 40.4874C66.5074 41.992 67.0616 43.732 67.2605 44.9975C66.1628 46.0364 65.1189 46.9528 64.7255 46.968C63.9127 46.9995 62.6059 46.8874 62.1245 47.0689C61.6432 47.2503 61.3608 44.168 61.3608 44.168C61.3608 44.168 61.6481 43.18 62.9297 42.6419C63.7947 42.2779 65.4529 41.2905 66.4295 40.4874Z" fill="black"/>
<path d="M68.4149 28.7536C68.4149 28.7536 71.1658 28.3214 71.0172 32.8856C70.8686 37.4499 71.3072 40.3634 70.2008 41.2203C69.0944 42.0773 65.5005 45.9611 64.6877 45.9926C63.8749 46.0242 62.5681 45.912 62.0867 46.0935C61.6053 46.275 61.323 43.1926 61.323 43.1926C61.323 43.1926 61.6103 42.2047 62.8919 41.6666C64.1734 41.1285 67.1927 39.2205 67.1675 38.5703C67.1423 37.92 66.4038 35.6694 66.4038 35.6694C66.4038 35.6694 65.3767 30.1739 68.4149 28.7536Z" fill="#575A89"/>
<path d="M61.6476 25.7574C63.6242 25.7574 65.2266 24.155 65.2266 22.1784C65.2266 20.2017 63.6242 18.5994 61.6476 18.5994C59.671 18.5994 58.0686 20.2017 58.0686 22.1784C58.0686 24.155 59.671 25.7574 61.6476 25.7574Z" fill="#FFB9B9"/>
<path d="M59.2378 17.0486C59.1515 17.123 59.0481 17.1749 58.9369 17.1996C58.881 17.2096 58.8235 17.197 58.7769 17.1647C58.7303 17.1325 58.6983 17.083 58.688 17.0272C58.6061 17.1971 58.5137 17.3781 58.3466 17.4652C58.1794 17.5523 57.9209 17.4793 57.8968 17.2923C57.8724 17.4342 57.8095 17.5668 57.7152 17.6756C57.6114 17.7745 57.4233 17.7995 57.3328 17.6884C57.406 18.0885 57.3608 18.5 57.3838 18.9061C57.4068 19.3122 57.5151 19.7428 57.8219 20.0098C58.2693 20.3992 58.9422 20.3031 59.5308 20.2293C59.6198 20.2107 59.7122 20.2157 59.7986 20.244C60.019 20.3379 60.009 20.6447 60.012 20.8842C60.03 21.3045 60.1963 21.7049 60.4815 22.0141C60.7666 22.3234 61.1522 22.5216 61.5697 22.5735C61.8033 22.6096 62.0417 22.5514 62.2324 22.4118C62.3995 22.2701 62.4849 22.0393 62.6764 21.9328C62.9879 21.7597 63.3657 22.0122 63.5934 22.2863C63.8212 22.5604 64.0456 22.8975 64.3984 22.9477C64.865 23.014 65.2204 22.5385 65.3948 22.1006C65.6354 21.4869 65.7506 20.8313 65.7338 20.1723C65.7169 19.5134 65.5683 18.8644 65.2967 18.2638C64.3224 16.14 60.9941 15.8041 59.2378 17.0486Z" fill="#2F2E41"/>
</g>
<defs>
<linearGradient id="paint0_linear" x1="35.3188" y1="37.8252" x2="51.7513" y2="37.8252" gradientUnits="userSpaceOnUse">
<stop stop-color="#808080" stop-opacity="0.25"/>
<stop offset="0.53514" stop-color="#808080" stop-opacity="0.12"/>
<stop offset="1" stop-color="#808080" stop-opacity="0.1"/>
</linearGradient>
<clipPath id="clip0">
<rect width="88" height="78.6189" fill="white"/>
</clipPath>
</defs>
</svg>
